<?xml version="1.0" encoding="UTF-8" standalone="no"?>
<!-- Generator: Adobe Illustrator 23.0.2, SVG Export Plug-In . SVG Version: 6.00 Build 0)  -->

<svg
   xmlns:dc="http://purl.org/dc/elements/1.1/"
   xmlns:cc="http://creativecommons.org/ns#"
   xmlns:rdf="http://www.w3.org/1999/02/22-rdf-syntax-ns#"
   xmlns:svg="http://www.w3.org/2000/svg"
   xmlns="http://www.w3.org/2000/svg"
   xmlns:sodipodi="http://sodipodi.sourceforge.net/DTD/sodipodi-0.dtd"
   xmlns:inkscape="http://www.inkscape.org/namespaces/inkscape"
   version="1.1"
   id="Layer_1"
   x="0px"
   y="0px"
   viewBox="0 0 312.6 125"
   style="enable-background:new 0 0 312.6 125;"
   xml:space="preserve"
   sodipodi:docname="amalgamFlowchart.svg"
   inkscape:version="0.92.2 5c3e80d, 2017-08-06"><metadata
     id="metadata501"><rdf:RDF><cc:Work
         rdf:about=""><dc:format>image/svg+xml</dc:format><dc:type
           rdf:resource="http://purl.org/dc/dcmitype/StillImage" /><dc:title></dc:title></cc:Work></rdf:RDF></metadata><defs
     id="defs499" /><sodipodi:namedview
     pagecolor="#ffffff"
     bordercolor="#666666"
     borderopacity="1"
     objecttolerance="10"
     gridtolerance="10"
     guidetolerance="10"
     inkscape:pageopacity="0"
     inkscape:pageshadow="2"
     inkscape:window-width="1680"
     inkscape:window-height="1005"
     id="namedview497"
     showgrid="false"
     inkscape:pagecheckerboard="true"
     inkscape:zoom="2.9315751"
     inkscape:cx="168.57807"
     inkscape:cy="78.390152"
     inkscape:window-x="0"
     inkscape:window-y="1"
     inkscape:window-maximized="1"
     inkscape:current-layer="Layer_1" /><style
     type="text/css"
     id="style2">
	.st0{fill:#FFFFFF;}
	.st1{font-family:'AlteDIN1451Mittelschrift';}
	.st2{font-size:12px;}
	.st3{font-size:10px;}
	.st4{fill:none;stroke:#279EFF;stroke-miterlimit:10;}
	.st5{fill:#279EFF;}
	.st6{fill:none;stroke:#22B573;stroke-miterlimit:10;}
	.st7{fill:#22B573;}
	.st8{fill:none;stroke:#FFFFFF;stroke-miterlimit:10;}
	.st9{fill:none;stroke:#D80000;stroke-miterlimit:10;}
	.st10{fill:#D80000;}
	.st11{fill:none;stroke:#279EFF;stroke-linecap:round;stroke-miterlimit:10;}
	.st12{fill:none;stroke:#D80000;stroke-linecap:round;stroke-miterlimit:10;}
	.st13{fill:none;stroke:#FFFFFF;stroke-linecap:round;stroke-miterlimit:10;}
</style><g
     id="g6"><path
       class="st0"
       d="M208.8,40.5v46h-62.3v-46H208.8 M209.8,39.5h-64.3v48h64.3V39.5L209.8,39.5z"
       id="path4" /></g><g
     id="g10"><path
       class="st0"
       d="M56.5,43.4v16.2H32.5V43.4H56.5 M57.5,42.4H31.5v18.2h25.9V42.4L57.5,42.4z"
       id="path8" /></g><g
     aria-label="Combiner"
     transform="matrix(1 0 0 1 153.1414 66.9478)"
     style="font-size:12px;font-family:AlteDIN1451Mittelschrift;fill:#ffffff"
     id="text12"><path
       d="m 5.3027344,-2.3789063 h 1.3652343 q -0.2519531,1.1953126 -1.078125,1.82812505 -0.8261718,0.62695312 -1.9218749,0.62695312 -1.0078125,0 -1.6933594,-0.48046875 Q 1.2949219,-0.890625 0.99609375,-1.453125 0.78515625,-1.828125 0.703125,-2.2734375 0.62109375,-2.71875 0.62109375,-4.2597656 q 0,-1.5410156 0.0820313,-1.9863281 0.0820313,-0.4453125 0.29296875,-0.8203125 0.29882815,-0.5566407 0.97851565,-1.0488282 0.6855469,-0.4921875 1.6933594,-0.4921875 1.2128906,0 2.0039062,0.75 0.796875,0.7441407 0.9960937,1.78125 H 5.3027344 Q 5.1445312,-6.5683594 4.7109375,-6.9375 4.2832031,-7.3066406 3.6679688,-7.3066406 q -0.4570313,0 -0.7910157,0.1875 -0.3339843,0.1875 -0.5273437,0.4335937 -0.2519531,0.328125 -0.3457031,0.7207032 -0.087891,0.3925781 -0.087891,1.7050781 0,1.3183593 0.087891,1.7109375 0.09375,0.3925781 0.3457031,0.7089844 0.1933594,0.2578125 0.5273437,0.4453125 0.3339844,0.1816406 0.7910157,0.1816406 1.0781249,0 1.6347656,-1.1660157 z"
       style="font-size:12px;font-family:AlteDIN1451Mittelschrift;fill:#ffffff"
       id="path1361" /><path
       d="m 7.1835937,-3.0410156 q 0,-0.9785156 0.1523438,-1.4589844 0.1523437,-0.4804687 0.5039062,-0.8671875 0.2519532,-0.2753906 0.6914063,-0.5273437 0.4453125,-0.2519532 1.1601563,-0.2519532 0.7031247,0 1.1484377,0.2519532 0.445312,0.2519531 0.697265,0.5273437 0.351563,0.3867188 0.503907,0.8671875 0.152343,0.4804688 0.152343,1.4589844 0,0.9960937 -0.152343,1.4765625 -0.152344,0.4804687 -0.503907,0.86718748 -0.251953,0.28124999 -0.697265,0.52734375 -0.445313,0.24609374 -1.1484377,0.24609374 -0.7148438,0 -1.1601563,-0.24609374 Q 8.0917969,-0.41601563 7.8398437,-0.69726562 7.4882812,-1.0839844 7.3359375,-1.5644531 7.1835937,-2.0449219 7.1835937,-3.0410156 Z m 3.7910153,0.011719 q 0,-0.6621094 -0.07031,-0.9316406 -0.06445,-0.2695312 -0.228516,-0.515625 -0.322265,-0.4453125 -0.9843747,-0.4453125 -0.6738282,0 -0.984375,0.4453125 -0.1757813,0.2460938 -0.2402344,0.515625 -0.058594,0.2695312 -0.058594,0.9199219 0,0.6679687 0.058594,0.9433593 0.064453,0.2695313 0.2402344,0.5097657 0.3105468,0.4453125 0.984375,0.4453125 0.6621097,0 0.9843747,-0.4453125 0.164063,-0.2402344 0.228516,-0.5097657 0.07031,-0.2695312 0.07031,-0.9316406 z"
       style="font-size:12px;font-family:AlteDIN1451Mittelschrift;fill:#ffffff"
       id="path1363" /><path
       d="M 13.552734,0.00585938 V -6.0761719 h 1.22461 v 0.6503907 h 0.02344 q 0.580078,-0.7207032 1.582031,-0.7207032 0.638672,0 1.013672,0.2285157 0.375,0.2285156 0.703125,0.5625 0.720703,-0.7910157 1.921875,-0.7910157 0.708985,0 1.365235,0.5390625 0.662109,0.5390625 0.662109,1.5703125 V 0.00585938 H 20.824219 V -3.6152344 q 0,-0.6152343 -0.345703,-0.9609375 -0.345704,-0.3457031 -0.855469,-0.3457031 -0.527344,0 -0.873047,0.3457031 -0.339844,0.3457032 -0.339844,0.9609375 v 3.62109378 h -1.21875 V -3.6152344 q 0,-0.6152343 -0.345703,-0.9609375 Q 16.5,-4.921875 15.990234,-4.921875 q -0.527343,0 -0.873046,0.3457031 -0.339844,0.3457032 -0.339844,0.9609375 v 3.62109378 z"
       style="font-size:12px;font-family:AlteDIN1451Mittelschrift;fill:#ffffff"
       id="path1365" /><path
       d="M 23.701172,0.00585938 V -8.53125 h 1.224609 v 3.1054688 q 0.339844,-0.3222657 0.714844,-0.5214844 0.380859,-0.1992188 0.855469,-0.1992188 0.55664,0 0.960937,0.2285157 0.404297,0.2226562 0.667969,0.5625 0.251953,0.328125 0.339844,0.7675781 0.09375,0.4335937 0.09375,1.546875 0,1.125 -0.09375,1.5703125 -0.08789,0.4394531 -0.339844,0.76171873 -0.263672,0.34570312 -0.667969,0.56835937 -0.404297,0.21679687 -0.960937,0.21679687 -0.9375,0 -1.570313,-0.70312499 v 0.6328125 z M 26.126953,-4.921875 q -0.861328,0 -1.03125,0.6152344 -0.169922,0.6152343 -0.169922,1.265625 0,0.6679687 0.169922,1.2832031 0.169922,0.6152344 1.03125,0.6152344 0.861328,0 1.03125,-0.5917969 0.175781,-0.5917969 0.175781,-1.3066406 0,-0.6972657 -0.175781,-1.2890625 -0.169922,-0.5917969 -1.03125,-0.5917969 z"
       style="font-size:12px;font-family:AlteDIN1451Mittelschrift;fill:#ffffff"
       id="path1367" /><path
       d="M 29.970703,0.00585938 V -6.0761719 h 1.224609 v 6.08203128 z m 0,-7.31249998 V -8.53125 h 1.224609 v 1.2246094 z"
       style="font-size:12px;font-family:AlteDIN1451Mittelschrift;fill:#ffffff"
       id="path1369" /><path
       d="M 32.818359,0.00585938 V -6.0761719 h 1.22461 v 0.6503907 h 0.02344 q 0.56836,-0.7207032 1.582031,-0.7207032 0.708985,0 1.365235,0.5390625 0.662109,0.5390625 0.662109,1.5703125 V 0.00585938 H 36.451172 V -3.6152344 q 0,-0.6152343 -0.345703,-0.9609375 -0.339844,-0.3457031 -0.84961,-0.3457031 -0.527343,0 -0.873047,0.3457031 -0.339843,0.3457032 -0.339843,0.9609375 v 3.62109378 z"
       style="font-size:12px;font-family:AlteDIN1451Mittelschrift;fill:#ffffff"
       id="path1371" /><path
       d="m 43.945312,-2.5722656 h -3.785156 q 0,0.75 0.404297,1.125 0.410156,0.375 1.042969,0.375 0.755859,0 1.335937,-0.5859375 l 0.884766,0.75585935 Q 43.376953,-0.375 42.808594,-0.14648437 q -0.5625,0.22265624 -1.177735,0.22265624 -0.9375,0 -1.816406,-0.60351562 -0.878906,-0.60937495 -0.878906,-2.48437505 0,-1.7753906 0.808594,-2.4550781 0.814453,-0.6796875 1.699218,-0.6796875 1.001953,0 1.751953,0.6972657 0.75,0.6914062 0.75,1.8691406 z m -3.785156,-1.0078125 h 2.566406 q -0.0293,-0.6855469 -0.386718,-1.0488281 -0.357422,-0.3632813 -0.896485,-0.3632813 -0.544922,0 -0.908203,0.3632813 -0.357422,0.3632812 -0.375,1.0488281 z"
       style="font-size:12px;font-family:AlteDIN1451Mittelschrift;fill:#ffffff"
       id="path1373" /><path
       d="M 45.240234,0.00585938 V -6.0761719 h 1.22461 v 0.6503907 h 0.02344 q 0.56836,-0.7207032 1.582031,-0.7207032 0.667969,0 1.271485,0.46875 l -0.884766,1.0546875 q -0.398437,-0.2988281 -0.808594,-0.2988281 -0.451171,0 -0.820312,0.3046875 -0.363281,0.2988281 -0.363281,0.9667969 v 3.65624998 z"
       style="font-size:12px;font-family:AlteDIN1451Mittelschrift;fill:#ffffff"
       id="path1375" /></g><g
     aria-label="Type"
     transform="matrix(1 0 0 1 151.0747 12.7272)"
     style="font-size:10px;font-family:AlteDIN1451Mittelschrift;fill:#ffffff"
     id="text14"><path
       d="M 1.9677734,0.00488281 V -6.1523437 H 0.01953125 V -7.109375 H 4.9951172 v 0.9570313 H 3.046875 v 6.15722651 z"
       style="font-size:10px;font-family:AlteDIN1451Mittelschrift;fill:#ffffff"
       id="path1470" /><path
       d="M 6.7578125,-0.19042969 4.9414062,-5.0634766 H 6.015625 l 1.2011719,3.5498047 h 0.019531 L 8.4375,-5.0634766 H 9.5166016 L 7.3388672,1.0546875 Q 7.1240234,1.640625 6.7480469,1.8457031 6.3720703,2.0556641 5.9082031,2.0556641 H 5.5664062 V 1.09375 h 0.3027344 q 0.4589844,0 0.6103516,-0.43945313 z"
       style="font-size:10px;font-family:AlteDIN1451Mittelschrift;fill:#ffffff"
       id="path1472" /><path
       d="m 10.102539,2.0556641 v -7.1191407 h 1.020508 V -4.53125 q 0.532226,-0.5908203 1.308594,-0.5908203 0.463867,0 0.800781,0.1904297 0.336914,0.1855469 0.556641,0.46875 0.20996,0.2734375 0.283203,0.6396484 0.07813,0.3613281 0.07813,1.2988281 0,0.9326172 -0.07813,1.2988282 -0.07324,0.3662109 -0.283203,0.63476559 -0.219727,0.28808593 -0.556641,0.47363281 -0.336914,0.18066406 -0.800781,0.18066406 -0.395508,0 -0.712891,-0.16113281 -0.3125,-0.16113281 -0.595703,-0.43457031 V 2.0556641 Z m 2.021484,-3.00781254 q 0.717774,0 0.859375,-0.49316406 0.146485,-0.4931641 0.146485,-1.0791016 0,-0.5859375 -0.146485,-1.0791015 -0.141601,-0.4980469 -0.859375,-0.4980469 -0.717773,0 -0.859375,0.5126953 -0.141601,0.5126953 -0.141601,1.0644531 0,0.5517579 0.141601,1.0644532 0.141602,0.50781246 0.859375,0.50781246 z"
       style="font-size:10px;font-family:AlteDIN1451Mittelschrift;fill:#ffffff"
       id="path1474" /><path
       d="m 19.199219,-2.1435547 h -3.154297 q 0,0.625 0.336914,0.9375 0.341797,0.31250001 0.869141,0.31250001 0.629882,0 1.113281,-0.48828121 l 0.737304,0.62988278 q -0.375976,0.43945312 -0.849609,0.62988281 -0.46875,0.18554687 -0.981445,0.18554687 -0.78125,0 -1.513672,-0.50292969 -0.732422,-0.5078125 -0.732422,-2.07031247 0,-1.4794922 0.673828,-2.0458985 0.678711,-0.5664062 1.416016,-0.5664062 0.834961,0 1.459961,0.5810547 0.625,0.5761718 0.625,1.5576172 z m -3.154297,-0.8398437 h 2.138672 q -0.02441,-0.5712891 -0.322266,-0.8740235 -0.297851,-0.3027343 -0.74707,-0.3027343 -0.454102,0 -0.756836,0.3027343 -0.297852,0.3027344 -0.3125,0.8740235 z"
       style="font-size:10px;font-family:AlteDIN1451Mittelschrift;fill:#ffffff"
       id="path1476" /></g><g
     aria-label="Param B"
     transform="matrix(1 0 0 1 176.251 12.7272)"
     style="font-size:10px;font-family:AlteDIN1451Mittelschrift;fill:#ffffff"
     id="text16"><path
       d="m 1.8359375,-6.0888672 v 2.2949219 H 3.4375 q 0.6005859,0 0.8935547,-0.3613281 0.2978515,-0.3613282 0.2978515,-0.7861328 0,-0.6445313 -0.4638671,-0.9472657 Q 3.8671875,-6.0888672 3.3984375,-6.0888672 Z M 0.75683594,0.00488281 V -7.109375 H 3.3398438 q 0.415039,0 0.7958984,0.087891 0.3857422,0.087891 0.8007812,0.4101563 0.3222657,0.2490234 0.546875,0.6884765 0.2246094,0.4345704 0.2246094,1.0107422 0,0.7617188 -0.5712891,1.4501953 -0.5664062,0.6884766 -1.6601562,0.6884766 h -1.640625 v 2.77832031 z"
       style="font-size:10px;font-family:AlteDIN1451Mittelschrift;fill:#ffffff"
       id="path1457" /><path
       d="M 9.2919922,0.02441406 V -0.42480469 H 9.2724609 Q 9.1308594,-0.16113281 8.8476563,-0.04394531 8.5449219,0.08300781 8.0566406,0.08300781 7.2167969,0.06347656 6.7871094,-0.36621094 q -0.46875,-0.4296875 -0.46875,-1.09863276 0,-0.6347657 0.4052734,-1.0644532 0.4052734,-0.4296875 1.1962891,-0.4394531 h 1.3720703 v -0.5371094 q 0.00488,-0.6738281 -1.0107422,-0.6542968 -0.3515625,0 -0.5859375,0.078125 -0.2294922,0.102539 -0.3466797,0.3173828 l -0.78125,-0.6152344 q 0.5664063,-0.7568359 1.6650391,-0.7373047 0.9228515,-0.00977 1.484375,0.3613281 0.5517581,0.3857422 0.5615231,1.3085938 v 3.47167966 z m 0,-1.78222656 V -2.1289063 H 8.1054688 q -0.8691407,0.024414 -0.8593751,0.6152344 0,0.2539063 0.2246094,0.4394532 0.2148438,0.20019526 0.7080078,0.20019526 0.625,0.009766 0.8789063,-0.15136716 0.234375,-0.1611328 0.234375,-0.7324219 z"
       style="font-size:10px;font-family:AlteDIN1451Mittelschrift;fill:#ffffff"
       id="path1459" /><path
       d="M 11.411133,0.00488281 V -5.0634766 h 1.020508 v 0.5419922 h 0.01953 q 0.473633,-0.6005859 1.318359,-0.6005859 0.556641,0 1.059571,0.390625 l -0.737305,0.8789062 q -0.332031,-0.2490234 -0.673828,-0.2490234 -0.375977,0 -0.683594,0.2539062 -0.302734,0.2490235 -0.302734,0.8056641 v 3.04687501 z"
       style="font-size:10px;font-family:AlteDIN1451Mittelschrift;fill:#ffffff"
       id="path1461" /><path
       d="m 17.983398,0.02441406 v -0.44921875 h -0.01953 q -0.141601,0.26367188 -0.424805,0.38085938 -0.302734,0.12695312 -0.791015,0.12695312 -0.839844,-0.01953125 -1.269531,-0.44921875 -0.46875,-0.4296875 -0.46875,-1.09863276 0,-0.6347657 0.405273,-1.0644532 0.405274,-0.4296875 1.196289,-0.4394531 h 1.37207 v -0.5371094 q 0.0049,-0.6738281 -1.010742,-0.6542968 -0.351562,0 -0.585937,0.078125 -0.229492,0.102539 -0.34668,0.3173828 l -0.78125,-0.6152344 q 0.566406,-0.7568359 1.665039,-0.7373047 0.922852,-0.00977 1.484375,0.3613281 0.551758,0.3857422 0.561524,1.3085938 v 3.47167966 z m 0,-1.78222656 v -0.3710938 h -1.186523 q -0.869141,0.024414 -0.859375,0.6152344 0,0.2539063 0.224609,0.4394532 0.214844,0.20019526 0.708008,0.20019526 0.625,0.009766 0.878906,-0.15136716 0.234375,-0.1611328 0.234375,-0.7324219 z"
       style="font-size:10px;font-family:AlteDIN1451Mittelschrift;fill:#ffffff"
       id="path1463" /><path
       d="M 20.161133,0.00488281 V -5.0634766 h 1.020508 v 0.5419922 h 0.01953 q 0.483398,-0.6005859 1.318359,-0.6005859 0.532227,0 0.844727,0.1904297 0.3125,0.1904297 0.585937,0.46875 0.600586,-0.6591797 1.601563,-0.6591797 0.59082,0 1.137695,0.4492187 0.551758,0.4492188 0.551758,1.3085938 V 0.00488281 H 26.220703 V -3.0126953 q 0,-0.5126953 -0.288086,-0.8007813 -0.288086,-0.2880859 -0.71289,-0.2880859 -0.439454,0 -0.72754,0.2880859 -0.283203,0.288086 -0.283203,0.8007813 V 0.00488281 H 23.193359 V -3.0126953 q 0,-0.5126953 -0.288086,-0.8007813 -0.288086,-0.2880859 -0.71289,-0.2880859 -0.439453,0 -0.727539,0.2880859 -0.283203,0.288086 -0.283203,0.8007813 v 3.01757811 z"
       style="font-size:10px;font-family:AlteDIN1451Mittelschrift;fill:#ffffff"
       id="path1465" /><path
       d="M 31.108398,0.00488281 V -7.109375 h 2.758789 q 1.04004,0 1.572266,0.5371094 0.537109,0.5322265 0.537109,1.3720703 0,0.4394531 -0.214843,0.8447266 -0.214844,0.4052734 -0.834961,0.6835937 v 0.019531 q 0.585937,0.1367188 0.874023,0.6201172 0.288086,0.4785157 0.288086,1.0205078 0,0.9228516 -0.59082,1.46972661 -0.585938,0.546875 -1.386719,0.546875 z M 33.847656,-3.1542969 H 32.1875 v 2.1435547 h 1.660156 q 0.600586,0 0.878906,-0.3222656 0.283204,-0.3271484 0.283204,-0.7470703 0,-0.4199219 -0.283204,-0.7470703 -0.27832,-0.3271485 -0.878906,-0.3271485 z M 33.75,-6.1523437 h -1.5625 v 2.0410156 H 33.75 q 0.581055,0 0.864258,-0.2978516 0.283203,-0.2978515 0.283203,-0.7226562 0,-0.4101563 -0.283203,-0.7128907 Q 34.331055,-6.1523437 33.75,-6.1523437 Z"
       style="font-size:10px;font-family:AlteDIN1451Mittelschrift;fill:#ffffff"
       id="path1467" /></g><g
     aria-label="Param A"
     transform="matrix(1 0 0 1 159.3878 121.9193)"
     style="font-size:10px;font-family:AlteDIN1451Mittelschrift;fill:#ffffff"
     id="text18"><path
       d="m 1.8359375,-6.0888672 v 2.2949219 H 3.4375 q 0.6005859,0 0.8935547,-0.3613281 0.2978515,-0.3613282 0.2978515,-0.7861328 0,-0.6445313 -0.4638671,-0.9472657 Q 3.8671875,-6.0888672 3.3984375,-6.0888672 Z M 0.75683594,0.00488281 V -7.109375 H 3.3398438 q 0.415039,0 0.7958984,0.087891 0.3857422,0.087891 0.8007812,0.4101563 0.3222657,0.2490234 0.546875,0.6884765 0.2246094,0.4345704 0.2246094,1.0107422 0,0.7617188 -0.5712891,1.4501953 -0.5664062,0.6884766 -1.6601562,0.6884766 h -1.640625 v 2.77832031 z"
       style="font-size:10px;font-family:AlteDIN1451Mittelschrift;fill:#ffffff"
       id="path1395" /><path
       d="M 9.2919922,0.02441406 V -0.42480469 H 9.2724609 Q 9.1308594,-0.16113281 8.8476563,-0.04394531 8.5449219,0.08300781 8.0566406,0.08300781 7.2167969,0.06347656 6.7871094,-0.36621094 q -0.46875,-0.4296875 -0.46875,-1.09863276 0,-0.6347657 0.4052734,-1.0644532 0.4052734,-0.4296875 1.1962891,-0.4394531 h 1.3720703 v -0.5371094 q 0.00488,-0.6738281 -1.0107422,-0.6542968 -0.3515625,0 -0.5859375,0.078125 -0.2294922,0.102539 -0.3466797,0.3173828 l -0.78125,-0.6152344 q 0.5664063,-0.7568359 1.6650391,-0.7373047 0.9228515,-0.00977 1.484375,0.3613281 0.5517581,0.3857422 0.5615231,1.3085938 v 3.47167966 z m 0,-1.78222656 V -2.1289063 H 8.1054688 q -0.8691407,0.024414 -0.8593751,0.6152344 0,0.2539063 0.2246094,0.4394532 0.2148438,0.20019526 0.7080078,0.20019526 0.625,0.009766 0.8789063,-0.15136716 0.234375,-0.1611328 0.234375,-0.7324219 z"
       style="font-size:10px;font-family:AlteDIN1451Mittelschrift;fill:#ffffff"
       id="path1397" /><path
       d="M 11.411133,0.00488281 V -5.0634766 h 1.020508 v 0.5419922 h 0.01953 q 0.473633,-0.6005859 1.318359,-0.6005859 0.556641,0 1.059571,0.390625 l -0.737305,0.8789062 q -0.332031,-0.2490234 -0.673828,-0.2490234 -0.375977,0 -0.683594,0.2539062 -0.302734,0.2490235 -0.302734,0.8056641 v 3.04687501 z"
       style="font-size:10px;font-family:AlteDIN1451Mittelschrift;fill:#ffffff"
       id="path1399" /><path
       d="m 17.983398,0.02441406 v -0.44921875 h -0.01953 q -0.141601,0.26367188 -0.424805,0.38085938 -0.302734,0.12695312 -0.791015,0.12695312 -0.839844,-0.01953125 -1.269531,-0.44921875 -0.46875,-0.4296875 -0.46875,-1.09863276 0,-0.6347657 0.405273,-1.0644532 0.405274,-0.4296875 1.196289,-0.4394531 h 1.37207 v -0.5371094 q 0.0049,-0.6738281 -1.010742,-0.6542968 -0.351562,0 -0.585937,0.078125 -0.229492,0.102539 -0.34668,0.3173828 l -0.78125,-0.6152344 q 0.566406,-0.7568359 1.665039,-0.7373047 0.922852,-0.00977 1.484375,0.3613281 0.551758,0.3857422 0.561524,1.3085938 v 3.47167966 z m 0,-1.78222656 v -0.3710938 h -1.186523 q -0.869141,0.024414 -0.859375,0.6152344 0,0.2539063 0.224609,0.4394532 0.214844,0.20019526 0.708008,0.20019526 0.625,0.009766 0.878906,-0.15136716 0.234375,-0.1611328 0.234375,-0.7324219 z"
       style="font-size:10px;font-family:AlteDIN1451Mittelschrift;fill:#ffffff"
       id="path1401" /><path
       d="M 20.161133,0.00488281 V -5.0634766 h 1.020508 v 0.5419922 h 0.01953 q 0.483398,-0.6005859 1.318359,-0.6005859 0.532227,0 0.844727,0.1904297 0.3125,0.1904297 0.585937,0.46875 0.600586,-0.6591797 1.601563,-0.6591797 0.59082,0 1.137695,0.4492187 0.551758,0.4492188 0.551758,1.3085938 V 0.00488281 H 26.220703 V -3.0126953 q 0,-0.5126953 -0.288086,-0.8007813 -0.288086,-0.2880859 -0.71289,-0.2880859 -0.439454,0 -0.72754,0.2880859 -0.283203,0.288086 -0.283203,0.8007813 V 0.00488281 H 23.193359 V -3.0126953 q 0,-0.5126953 -0.288086,-0.8007813 -0.288086,-0.2880859 -0.71289,-0.2880859 -0.439453,0 -0.727539,0.2880859 -0.283203,0.288086 -0.283203,0.8007813 v 3.01757811 z"
       style="font-size:10px;font-family:AlteDIN1451Mittelschrift;fill:#ffffff"
       id="path1403" /><path
       d="m 30.361328,0 2.597656,-7.1191406 h 0.888672 L 36.445312,0 H 35.3125 L 34.765625,-1.6064453 H 32.06543 L 31.499023,0 Z m 2.021484,-2.5585938 h 2.060547 q -0.224609,-0.6591796 -0.356445,-1.0302734 -0.126953,-0.3759766 -0.224609,-0.6640625 -0.09277,-0.2880859 -0.19043,-0.5859375 -0.09766,-0.2978515 -0.258789,-0.805664 -0.170899,0.5273437 -0.273438,0.8447265 -0.102539,0.3125 -0.200195,0.6054688 -0.09277,0.2929687 -0.219726,0.6542968 -0.122071,0.3613282 -0.336915,0.9814453 z"
       style="font-size:10px;font-family:AlteDIN1451Mittelschrift;fill:#ffffff"
       id="path1405" /></g><g
     id="g22"><path
       class="st0"
       d="M283,81v22h-43V81H283 M284,80h-45v24h45V80L284,80z"
       id="path20" /></g><g
     aria-label="Pulser"
     transform="matrix(1 0 0 1 247.6823 95.4478)"
     style="font-size:10px;font-family:AlteDIN1451Mittelschrift;fill:#ffffff"
     id="text24"><path
       d="m 1.8359375,-6.0888672 v 2.2949219 H 3.4375 q 0.6005859,0 0.8935547,-0.3613281 0.2978515,-0.3613282 0.2978515,-0.7861328 0,-0.6445313 -0.4638671,-0.9472657 Q 3.8671875,-6.0888672 3.3984375,-6.0888672 Z M 0.75683594,0.00488281 V -7.109375 H 3.3398438 q 0.415039,0 0.7958984,0.087891 0.3857422,0.087891 0.8007812,0.4101563 0.3222657,0.2490234 0.546875,0.6884765 0.2246094,0.4345704 0.2246094,1.0107422 0,0.7617188 -0.5712891,1.4501953 -0.5664062,0.6884766 -1.6601562,0.6884766 h -1.640625 v 2.77832031 z"
       style="font-size:10px;font-family:AlteDIN1451Mittelschrift;fill:#ffffff"
       id="path1424" /><path
       d="m 6.6064453,-1.6943359 v -3.3691407 h 1.0205078 v 3.022461 q 0,0.5175781 0.2832031,0.805664 0.288086,0.28320316 0.7275391,0.28320316 0.4248047,0 0.7080078,-0.28320316 0.288086,-0.2880859 0.288086,-0.805664 v -3.022461 H 10.654297 V 0.00488281 H 9.6337891 V -0.53222656 H 9.6142578 Q 9.140625,0.06347656 8.3056641,0.06347656 q -0.600586,0 -1.1523438,-0.44433594 -0.546875,-0.44921875 -0.546875,-1.31347652 z"
       style="font-size:10px;font-family:AlteDIN1451Mittelschrift;fill:#ffffff"
       id="path1426" /><path
       d="M 11.977539,-1.2207031 V -7.109375 h 1.020508 v 5.8056641 q 0,0.35156246 0.380859,0.35156246 h 0.34668 v 0.95703125 h -0.449219 q -0.55664,0 -0.927734,-0.26855469 -0.371094,-0.27343749 -0.371094,-0.95703122 z"
       style="font-size:10px;font-family:AlteDIN1451Mittelschrift;fill:#ffffff"
       id="path1428" /><path
       d="m 13.994141,-0.83984375 0.71289,-0.70312495 q 0.664063,0.64941401 1.59668,0.64941401 0.43457,0 0.717773,-0.16113281 0.283203,-0.1660156 0.283203,-0.4882812 0,-0.444336 -0.620117,-0.4980469 l -0.898437,-0.083008 q -0.629883,-0.048828 -1.044922,-0.4150391 -0.415039,-0.3662109 -0.415039,-1.0205078 0,-0.7714844 0.541992,-1.1669922 0.541992,-0.3955078 1.347656,-0.3955078 0.664063,0 1.137696,0.1904297 0.473632,0.1855469 0.849609,0.4980469 l -0.629883,0.7421874 q -0.302734,-0.2050781 -0.625,-0.336914 -0.322265,-0.1318359 -0.732422,-0.1318359 -0.488281,0 -0.678711,0.1757812 -0.190429,0.1708984 -0.190429,0.4345703 0,0.1660156 0.141601,0.3076172 0.141602,0.1416016 0.527344,0.1708984 l 0.839844,0.058594 q 0.786133,0.053711 1.127929,0.4882812 0.341797,0.4296875 0.341797,1.0302735 0,0.74707029 -0.610351,1.15234372 -0.610352,0.40527344 -1.489258,0.40527344 -1.264648,0 -2.231445,-0.90332031 z"
       style="font-size:10px;font-family:AlteDIN1451Mittelschrift;fill:#ffffff"
       id="path1430" /><path
       d="m 23.261719,-2.1435547 h -3.154297 q 0,0.625 0.336914,0.9375 0.341797,0.31250001 0.869141,0.31250001 0.629882,0 1.113281,-0.48828121 l 0.737304,0.62988278 q -0.375976,0.43945312 -0.849609,0.62988281 -0.46875,0.18554687 -0.981445,0.18554687 -0.78125,0 -1.513672,-0.50292969 -0.732422,-0.5078125 -0.732422,-2.07031247 0,-1.4794922 0.673828,-2.0458985 0.678711,-0.5664062 1.416016,-0.5664062 0.834961,0 1.459961,0.5810547 0.625,0.5761718 0.625,1.5576172 z m -3.154297,-0.8398437 h 2.138672 q -0.02441,-0.5712891 -0.322266,-0.8740235 -0.297851,-0.3027343 -0.74707,-0.3027343 -0.454102,0 -0.756836,0.3027343 -0.297852,0.3027344 -0.3125,0.8740235 z"
       style="font-size:10px;font-family:AlteDIN1451Mittelschrift;fill:#ffffff"
       id="path1432" /><path
       d="M 24.34082,0.00488281 V -5.0634766 h 1.020508 v 0.5419922 h 0.01953 q 0.473633,-0.6005859 1.31836,-0.6005859 0.55664,0 1.05957,0.390625 l -0.737305,0.8789062 q -0.332031,-0.2490234 -0.673828,-0.2490234 -0.375976,0 -0.683594,0.2539062 -0.302734,0.2490235 -0.302734,0.8056641 v 3.04687501 z"
       style="font-size:10px;font-family:AlteDIN1451Mittelschrift;fill:#ffffff"
       id="path1434" /></g><g
     id="g28"><path
       class="st0"
       d="M283,23.8v22h-43v-22H283 M284,22.8h-45v24h45V22.8L284,22.8z"
       id="path26" /></g><g
     aria-label="Pulser"
     transform="matrix(1 0 0 1 247.6823 38.297)"
     style="font-size:10px;font-family:AlteDIN1451Mittelschrift;fill:#ffffff"
     id="text30"><path
       d="m 1.8359375,-6.0888672 v 2.2949219 H 3.4375 q 0.6005859,0 0.8935547,-0.3613281 0.2978515,-0.3613282 0.2978515,-0.7861328 0,-0.6445313 -0.4638671,-0.9472657 Q 3.8671875,-6.0888672 3.3984375,-6.0888672 Z M 0.75683594,0.00488281 V -7.109375 H 3.3398438 q 0.415039,0 0.7958984,0.087891 0.3857422,0.087891 0.8007812,0.4101563 0.3222657,0.2490234 0.546875,0.6884765 0.2246094,0.4345704 0.2246094,1.0107422 0,0.7617188 -0.5712891,1.4501953 -0.5664062,0.6884766 -1.6601562,0.6884766 h -1.640625 v 2.77832031 z"
       style="font-size:10px;font-family:AlteDIN1451Mittelschrift;fill:#ffffff"
       id="path1437" /><path
       d="m 6.6064453,-1.6943359 v -3.3691407 h 1.0205078 v 3.022461 q 0,0.5175781 0.2832031,0.805664 0.288086,0.28320316 0.7275391,0.28320316 0.4248047,0 0.7080078,-0.28320316 0.288086,-0.2880859 0.288086,-0.805664 v -3.022461 H 10.654297 V 0.00488281 H 9.6337891 V -0.53222656 H 9.6142578 Q 9.140625,0.06347656 8.3056641,0.06347656 q -0.600586,0 -1.1523438,-0.44433594 -0.546875,-0.44921875 -0.546875,-1.31347652 z"
       style="font-size:10px;font-family:AlteDIN1451Mittelschrift;fill:#ffffff"
       id="path1439" /><path
       d="M 11.977539,-1.2207031 V -7.109375 h 1.020508 v 5.8056641 q 0,0.35156246 0.380859,0.35156246 h 0.34668 v 0.95703125 h -0.449219 q -0.55664,0 -0.927734,-0.26855469 -0.371094,-0.27343749 -0.371094,-0.95703122 z"
       style="font-size:10px;font-family:AlteDIN1451Mittelschrift;fill:#ffffff"
       id="path1441" /><path
       d="m 13.994141,-0.83984375 0.71289,-0.70312495 q 0.664063,0.64941401 1.59668,0.64941401 0.43457,0 0.717773,-0.16113281 0.283203,-0.1660156 0.283203,-0.4882812 0,-0.444336 -0.620117,-0.4980469 l -0.898437,-0.083008 q -0.629883,-0.048828 -1.044922,-0.4150391 -0.415039,-0.3662109 -0.415039,-1.0205078 0,-0.7714844 0.541992,-1.1669922 0.541992,-0.3955078 1.347656,-0.3955078 0.664063,0 1.137696,0.1904297 0.473632,0.1855469 0.849609,0.4980469 l -0.629883,0.7421874 q -0.302734,-0.2050781 -0.625,-0.336914 -0.322265,-0.1318359 -0.732422,-0.1318359 -0.488281,0 -0.678711,0.1757812 -0.190429,0.1708984 -0.190429,0.4345703 0,0.1660156 0.141601,0.3076172 0.141602,0.1416016 0.527344,0.1708984 l 0.839844,0.058594 q 0.786133,0.053711 1.127929,0.4882812 0.341797,0.4296875 0.341797,1.0302735 0,0.74707029 -0.610351,1.15234372 -0.610352,0.40527344 -1.489258,0.40527344 -1.264648,0 -2.231445,-0.90332031 z"
       style="font-size:10px;font-family:AlteDIN1451Mittelschrift;fill:#ffffff"
       id="path1443" /><path
       d="m 23.261719,-2.1435547 h -3.154297 q 0,0.625 0.336914,0.9375 0.341797,0.31250001 0.869141,0.31250001 0.629882,0 1.113281,-0.48828121 l 0.737304,0.62988278 q -0.375976,0.43945312 -0.849609,0.62988281 -0.46875,0.18554687 -0.981445,0.18554687 -0.78125,0 -1.513672,-0.50292969 -0.732422,-0.5078125 -0.732422,-2.07031247 0,-1.4794922 0.673828,-2.0458985 0.678711,-0.5664062 1.416016,-0.5664062 0.834961,0 1.459961,0.5810547 0.625,0.5761718 0.625,1.5576172 z m -3.154297,-0.8398437 h 2.138672 q -0.02441,-0.5712891 -0.322266,-0.8740235 -0.297851,-0.3027343 -0.74707,-0.3027343 -0.454102,0 -0.756836,0.3027343 -0.297852,0.3027344 -0.3125,0.8740235 z"
       style="font-size:10px;font-family:AlteDIN1451Mittelschrift;fill:#ffffff"
       id="path1445" /><path
       d="M 24.34082,0.00488281 V -5.0634766 h 1.020508 v 0.5419922 h 0.01953 q 0.473633,-0.6005859 1.31836,-0.6005859 0.55664,0 1.05957,0.390625 l -0.737305,0.8789062 q -0.332031,-0.2490234 -0.673828,-0.2490234 -0.375976,0 -0.683594,0.2539062 -0.302734,0.2490235 -0.302734,0.8056641 v 3.04687501 z"
       style="font-size:10px;font-family:AlteDIN1451Mittelschrift;fill:#ffffff"
       id="path1447" /></g><g
     aria-label="XOR"
     transform="matrix(1 0 0 1 115.5589 12.727)"
     style="font-size:10px;font-family:AlteDIN1451Mittelschrift;fill:#ffffff"
     id="text32"><path
       d="M 4.2480469,0.00488281 2.6904297,-2.6416016 1.1279297,0.00488281 H -0.08789062 L 2.0898438,-3.6425781 0.04882812,-7.109375 H 1.2695312 L 2.6904297,-4.6435547 4.1064453,-7.109375 H 5.3271484 L 3.2861328,-3.6425781 5.46875,0.00488281 Z"
       style="font-size:10px;font-family:AlteDIN1451Mittelschrift;fill:#ffffff"
       id="path1347" /><path
       d="m 5.8691406,-3.5498047 q 0,-1.2841797 0.068359,-1.6552734 0.068359,-0.3710938 0.2441406,-0.6835938 0.2490235,-0.4638672 0.8154297,-0.8740234 0.5712891,-0.4101563 1.4111328,-0.4101563 0.834961,0 1.4013672,0.4101563 0.5712887,0.4101562 0.8300777,0.8740234 0.170899,0.3125 0.239258,0.6835938 0.06836,0.3710937 0.06836,1.6552734 0,1.2841797 -0.06836,1.6552735 -0.06836,0.3710937 -0.239258,0.6835937 -0.258789,0.46875 -0.8300777,0.87402344 -0.5664062,0.40039062 -1.4013672,0.40039062 -0.8398437,0 -1.4111328,-0.40039062 Q 6.4306641,-0.7421875 6.1816406,-1.2109375 6.0058594,-1.5234375 5.9375,-1.8945312 5.8691406,-2.265625 5.8691406,-3.5498047 Z m 1.0791016,0 q 0,1.0986328 0.073242,1.4257813 0.078125,0.3271484 0.2880859,0.5908203 0.1611328,0.2148437 0.4394531,0.3710937 0.2783204,0.1513672 0.6591797,0.1513672 0.3808594,0 0.6591797,-0.1513672 0.2783203,-0.15625 0.4394531,-0.3710937 0.209961,-0.2636719 0.2832032,-0.5908203 0.078125,-0.3271485 0.078125,-1.4257813 0,-1.09375 -0.078125,-1.4208984 -0.073242,-0.3271485 -0.2832032,-0.600586 -0.1611328,-0.2050781 -0.4394531,-0.3613281 -0.2783203,-0.15625 -0.6591797,-0.15625 -0.3808593,0 -0.6591797,0.15625 -0.2783203,0.15625 -0.4394531,0.3613281 -0.2099609,0.2734375 -0.2880859,0.600586 -0.073242,0.3271484 -0.073242,1.4208984 z"
       style="font-size:10px;font-family:AlteDIN1451Mittelschrift;fill:#ffffff"
       id="path1349" /><path
       d="m 13.28125,-6.1523437 v 2.1582031 h 1.630859 q 0.605469,0 0.908204,-0.3369141 0.302734,-0.336914 0.302734,-0.7910156 0,-0.5419922 -0.361328,-0.8105469 -0.302735,-0.2197265 -0.786133,-0.2197265 z M 12.202148,0.00488281 V -7.109375 h 2.783204 q 0.913086,0 1.445312,0.46875 0.297852,0.2587891 0.50293,0.6494141 0.209961,0.390625 0.209961,0.8691406 0,0.6884766 -0.371094,1.2207031 -0.366211,0.5273438 -1.010742,0.7470703 l 1.65039,3.15917971 H 16.132812 L 14.663086,-3.0322266 H 13.28125 v 3.03710941 z"
       style="font-size:10px;font-family:AlteDIN1451Mittelschrift;fill:#ffffff"
       id="path1351" /></g><g
     aria-label="AND"
     transform="matrix(1 0 0 1 114.653 30.8818)"
     style="font-size:10px;font-family:AlteDIN1451Mittelschrift;fill:#ffffff"
     id="text34"><path
       d="M 0.00976563,0 2.6074219,-7.1191406 H 3.4960938 L 6.09375,0 H 4.9609375 L 4.4140625,-1.6064453 H 1.7138672 L 1.1474609,0 Z M 2.03125,-2.5585938 H 4.0917969 Q 3.8671875,-3.2177734 3.7353516,-3.5888672 3.6083984,-3.9648438 3.5107422,-4.2529297 3.4179688,-4.5410156 3.3203125,-4.8388672 3.2226563,-5.1367187 3.0615234,-5.6445312 2.890625,-5.1171875 2.7880859,-4.7998047 q -0.102539,0.3125 -0.2001953,0.6054688 -0.092773,0.2929687 -0.2197265,0.6542968 -0.1220703,0.3613282 -0.3369141,0.9814453 z"
       style="font-size:10px;font-family:AlteDIN1451Mittelschrift;fill:#ffffff"
       id="path1354" /><path
       d="M 6.9873047,0.00488281 V -7.109375 h 1.0205078 l 3.2177735,5.0585937 h 0.01953 V -7.109375 h 1.083985 V 0.00488281 H 11.308594 L 8.0908203,-5.0537109 h -0.024414 v 5.05859371 z"
       style="font-size:10px;font-family:AlteDIN1451Mittelschrift;fill:#ffffff"
       id="path1356" /><path
       d="M 13.823242,0.00488281 V -7.109375 h 2.490235 q 1.45996,0 2.167968,1.1962891 0.263672,0.4541015 0.322266,0.8496093 0.05859,0.3955079 0.05859,1.5136719 0,1.2011719 -0.08301,1.6064453 -0.07813,0.4003907 -0.317383,0.7714844 -0.317383,0.49804688 -0.874023,0.83984375 -0.551758,0.33691406 -1.342774,0.33691406 z m 1.079102,-6.09375001 v 5.078125 h 1.293945 q 0.888672,0 1.318359,-0.6201172 0.175782,-0.2685547 0.219727,-0.5761719 0.04883,-0.3125 0.04883,-1.3037109 0,-0.9570312 -0.05371,-1.3232422 -0.04883,-0.3662109 -0.263672,-0.6591797 -0.444336,-0.5957031 -1.269531,-0.5957031 z"
       style="font-size:10px;font-family:AlteDIN1451Mittelschrift;fill:#ffffff"
       id="path1358" /></g><g
     aria-label="AND"
     transform="matrix(1 0 0 1 114.6533 103.3684)"
     style="font-size:10px;font-family:AlteDIN1451Mittelschrift;fill:#ffffff"
     id="text36"><path
       d="M 0.00976563,0 2.6074219,-7.1191406 H 3.4960938 L 6.09375,0 H 4.9609375 L 4.4140625,-1.6064453 H 1.7138672 L 1.1474609,0 Z M 2.03125,-2.5585938 H 4.0917969 Q 3.8671875,-3.2177734 3.7353516,-3.5888672 3.6083984,-3.9648438 3.5107422,-4.2529297 3.4179688,-4.5410156 3.3203125,-4.8388672 3.2226563,-5.1367187 3.0615234,-5.6445312 2.890625,-5.1171875 2.7880859,-4.7998047 q -0.102539,0.3125 -0.2001953,0.6054688 -0.092773,0.2929687 -0.2197265,0.6542968 -0.1220703,0.3613282 -0.3369141,0.9814453 z"
       style="font-size:10px;font-family:AlteDIN1451Mittelschrift;fill:#ffffff"
       id="path1381" /><path
       d="M 6.9873047,0.00488281 V -7.109375 h 1.0205078 l 3.2177735,5.0585937 h 0.01953 V -7.109375 h 1.083985 V 0.00488281 H 11.308594 L 8.0908203,-5.0537109 h -0.024414 v 5.05859371 z"
       style="font-size:10px;font-family:AlteDIN1451Mittelschrift;fill:#ffffff"
       id="path1383" /><path
       d="M 13.823242,0.00488281 V -7.109375 h 2.490235 q 1.45996,0 2.167968,1.1962891 0.263672,0.4541015 0.322266,0.8496093 0.05859,0.3955079 0.05859,1.5136719 0,1.2011719 -0.08301,1.6064453 -0.07813,0.4003907 -0.317383,0.7714844 -0.317383,0.49804688 -0.874023,0.83984375 -0.551758,0.33691406 -1.342774,0.33691406 z m 1.079102,-6.09375001 v 5.078125 h 1.293945 q 0.888672,0 1.318359,-0.6201172 0.175782,-0.2685547 0.219727,-0.5761719 0.04883,-0.3125 0.04883,-1.3037109 0,-0.9570312 -0.05371,-1.3232422 -0.04883,-0.3662109 -0.263672,-0.6591797 -0.444336,-0.5957031 -1.269531,-0.5957031 z"
       style="font-size:10px;font-family:AlteDIN1451Mittelschrift;fill:#ffffff"
       id="path1385" /></g><g
     aria-label="XOR"
     transform="matrix(1 0 0 1 115.5589 121.5233)"
     style="font-size:10px;font-family:AlteDIN1451Mittelschrift;fill:#ffffff"
     id="text38"><path
       d="M 4.2480469,0.00488281 2.6904297,-2.6416016 1.1279297,0.00488281 H -0.08789062 L 2.0898438,-3.6425781 0.04882812,-7.109375 H 1.2695312 L 2.6904297,-4.6435547 4.1064453,-7.109375 H 5.3271484 L 3.2861328,-3.6425781 5.46875,0.00488281 Z"
       style="font-size:10px;font-family:AlteDIN1451Mittelschrift;fill:#ffffff"
       id="path1388" /><path
       d="m 5.8691406,-3.5498047 q 0,-1.2841797 0.068359,-1.6552734 0.068359,-0.3710938 0.2441406,-0.6835938 0.2490235,-0.4638672 0.8154297,-0.8740234 0.5712891,-0.4101563 1.4111328,-0.4101563 0.834961,0 1.4013672,0.4101563 0.5712887,0.4101562 0.8300777,0.8740234 0.170899,0.3125 0.239258,0.6835938 0.06836,0.3710937 0.06836,1.6552734 0,1.2841797 -0.06836,1.6552735 -0.06836,0.3710937 -0.239258,0.6835937 -0.258789,0.46875 -0.8300777,0.87402344 -0.5664062,0.40039062 -1.4013672,0.40039062 -0.8398437,0 -1.4111328,-0.40039062 Q 6.4306641,-0.7421875 6.1816406,-1.2109375 6.0058594,-1.5234375 5.9375,-1.8945312 5.8691406,-2.265625 5.8691406,-3.5498047 Z m 1.0791016,0 q 0,1.0986328 0.073242,1.4257813 0.078125,0.3271484 0.2880859,0.5908203 0.1611328,0.2148437 0.4394531,0.3710937 0.2783204,0.1513672 0.6591797,0.1513672 0.3808594,0 0.6591797,-0.1513672 0.2783203,-0.15625 0.4394531,-0.3710937 0.209961,-0.2636719 0.2832032,-0.5908203 0.078125,-0.3271485 0.078125,-1.4257813 0,-1.09375 -0.078125,-1.4208984 -0.073242,-0.3271485 -0.2832032,-0.600586 -0.1611328,-0.2050781 -0.4394531,-0.3613281 -0.2783203,-0.15625 -0.6591797,-0.15625 -0.3808593,0 -0.6591797,0.15625 -0.2783203,0.15625 -0.4394531,0.3613281 -0.2099609,0.2734375 -0.2880859,0.600586 -0.073242,0.3271484 -0.073242,1.4208984 z"
       style="font-size:10px;font-family:AlteDIN1451Mittelschrift;fill:#ffffff"
       id="path1390" /><path
       d="m 13.28125,-6.1523437 v 2.1582031 h 1.630859 q 0.605469,0 0.908204,-0.3369141 0.302734,-0.336914 0.302734,-0.7910156 0,-0.5419922 -0.361328,-0.8105469 -0.302735,-0.2197265 -0.786133,-0.2197265 z M 12.202148,0.00488281 V -7.109375 h 2.783204 q 0.913086,0 1.445312,0.46875 0.297852,0.2587891 0.50293,0.6494141 0.209961,0.390625 0.209961,0.8691406 0,0.6884766 -0.371094,1.2207031 -0.366211,0.5273438 -1.010742,0.7470703 l 1.65039,3.15917971 H 16.132812 L 14.663086,-3.0322266 H 13.28125 v 3.03710941 z"
       style="font-size:10px;font-family:AlteDIN1451Mittelschrift;fill:#ffffff"
       id="path1392" /></g><g
     aria-label="AND"
     transform="matrix(1 0 0 1 265.6263 121.468)"
     style="font-size:10px;font-family:AlteDIN1451Mittelschrift;fill:#ffffff"
     id="text40"><path
       d="M 0.00976563,0 2.6074219,-7.1191406 H 3.4960938 L 6.09375,0 H 4.9609375 L 4.4140625,-1.6064453 H 1.7138672 L 1.1474609,0 Z M 2.03125,-2.5585938 H 4.0917969 Q 3.8671875,-3.2177734 3.7353516,-3.5888672 3.6083984,-3.9648438 3.5107422,-4.2529297 3.4179688,-4.5410156 3.3203125,-4.8388672 3.2226563,-5.1367187 3.0615234,-5.6445312 2.890625,-5.1171875 2.7880859,-4.7998047 q -0.102539,0.3125 -0.2001953,0.6054688 -0.092773,0.2929687 -0.2197265,0.6542968 -0.1220703,0.3613282 -0.3369141,0.9814453 z"
       style="font-size:10px;font-family:AlteDIN1451Mittelschrift;fill:#ffffff"
       id="path1417" /><path
       d="M 6.9873047,0.00488281 V -7.109375 h 1.0205078 l 3.2177735,5.0585937 h 0.01953 V -7.109375 h 1.083985 V 0.00488281 H 11.308594 L 8.0908203,-5.0537109 h -0.024414 v 5.05859371 z"
       style="font-size:10px;font-family:AlteDIN1451Mittelschrift;fill:#ffffff"
       id="path1419" /><path
       d="M 13.823242,0.00488281 V -7.109375 h 2.490235 q 1.45996,0 2.167968,1.1962891 0.263672,0.4541015 0.322266,0.8496093 0.05859,0.3955079 0.05859,1.5136719 0,1.2011719 -0.08301,1.6064453 -0.07813,0.4003907 -0.317383,0.7714844 -0.317383,0.49804688 -0.874023,0.83984375 -0.551758,0.33691406 -1.342774,0.33691406 z m 1.079102,-6.09375001 v 5.078125 h 1.293945 q 0.888672,0 1.318359,-0.6201172 0.175782,-0.2685547 0.219727,-0.5761719 0.04883,-0.3125 0.04883,-1.3037109 0,-0.9570312 -0.05371,-1.3232422 -0.04883,-0.3662109 -0.263672,-0.6591797 -0.444336,-0.5957031 -1.269531,-0.5957031 z"
       style="font-size:10px;font-family:AlteDIN1451Mittelschrift;fill:#ffffff"
       id="path1421" /></g><g
     id="g50"><g
       id="g48"><line
         class="st4"
         x1="57.5"
         y1="47"
         x2="143.8"
         y2="47"
         id="line42" /><g
         id="g46"><polygon
           class="st5"
           points="140.8,49.5 143.4,47 140.8,44.4 143,44.4 145.5,47 143,49.5    "
           id="polygon44" /></g></g></g><g
     id="g60"><g
       id="g58"><line
         class="st6"
         x1="177.7"
         y1="111.4"
         x2="177.7"
         y2="89.2"
         id="line52" /><g
         id="g56"><polygon
           class="st7"
           points="180.2,92.2 177.7,89.6 175.1,92.2 175.1,90 177.7,87.5 180.2,90    "
           id="polygon54" /></g></g></g><g
     id="g70"><g
       id="g68"><line
         class="st4"
         x1="194.4"
         y1="17.8"
         x2="194.4"
         y2="37.8"
         id="line62" /><g
         id="g66"><polygon
           class="st5"
           points="191.9,34.8 194.4,37.3 197,34.8 197,36.9 194.4,39.5 191.9,36.9    "
           id="polygon64" /></g></g></g><g
     id="g80"><g
       id="g78"><line
         class="st8"
         x1="160.8"
         y1="17.8"
         x2="160.8"
         y2="37.8"
         id="line72" /><g
         id="g76"><polygon
           class="st0"
           points="158.3,34.8 160.8,37.3 163.4,34.8 163.4,36.9 160.8,39.5 158.3,36.9    "
           id="polygon74" /></g></g></g><g
     id="g90"><g
       id="g88"><line
         class="st8"
         x1="103.4"
         y1="9.1"
         x2="111.5"
         y2="9.1"
         id="line82" /><g
         id="g86"><polygon
           class="st0"
           points="108.5,11.7 111.1,9.1 108.5,6.6 110.7,6.6 113.2,9.1 110.7,11.7    "
           id="polygon84" /></g></g></g><g
     id="g100"><g
       id="g98"><line
         class="st8"
         x1="103.4"
         y1="27.2"
         x2="111.5"
         y2="27.2"
         id="line92" /><g
         id="g96"><polygon
           class="st0"
           points="108.5,29.8 111.1,27.2 108.5,24.7 110.7,24.7 113.2,27.2 110.7,29.8    "
           id="polygon94" /></g></g></g><g
     aria-label="XOR"
     transform="matrix(1 0 0 1 266.532 10.352)"
     style="font-size:10px;font-family:AlteDIN1451Mittelschrift;fill:#ffffff"
     id="text102"><path
       d="M 4.2480469,0.00488281 2.6904297,-2.6416016 1.1279297,0.00488281 H -0.08789062 L 2.0898438,-3.6425781 0.04882812,-7.109375 H 1.2695312 L 2.6904297,-4.6435547 4.1064453,-7.109375 H 5.3271484 L 3.2861328,-3.6425781 5.46875,0.00488281 Z"
       style="font-size:10px;font-family:AlteDIN1451Mittelschrift;fill:#ffffff"
       id="path1450" /><path
       d="m 5.8691406,-3.5498047 q 0,-1.2841797 0.068359,-1.6552734 0.068359,-0.3710938 0.2441406,-0.6835938 0.2490235,-0.4638672 0.8154297,-0.8740234 0.5712891,-0.4101563 1.4111328,-0.4101563 0.834961,0 1.4013672,0.4101563 0.5712887,0.4101562 0.8300777,0.8740234 0.170899,0.3125 0.239258,0.6835938 0.06836,0.3710937 0.06836,1.6552734 0,1.2841797 -0.06836,1.6552735 -0.06836,0.3710937 -0.239258,0.6835937 -0.258789,0.46875 -0.8300777,0.87402344 -0.5664062,0.40039062 -1.4013672,0.40039062 -0.8398437,0 -1.4111328,-0.40039062 Q 6.4306641,-0.7421875 6.1816406,-1.2109375 6.0058594,-1.5234375 5.9375,-1.8945312 5.8691406,-2.265625 5.8691406,-3.5498047 Z m 1.0791016,0 q 0,1.0986328 0.073242,1.4257813 0.078125,0.3271484 0.2880859,0.5908203 0.1611328,0.2148437 0.4394531,0.3710937 0.2783204,0.1513672 0.6591797,0.1513672 0.3808594,0 0.6591797,-0.1513672 0.2783203,-0.15625 0.4394531,-0.3710937 0.209961,-0.2636719 0.2832032,-0.5908203 0.078125,-0.3271485 0.078125,-1.4257813 0,-1.09375 -0.078125,-1.4208984 -0.073242,-0.3271485 -0.2832032,-0.600586 -0.1611328,-0.2050781 -0.4394531,-0.3613281 -0.2783203,-0.15625 -0.6591797,-0.15625 -0.3808593,0 -0.6591797,0.15625 -0.2783203,0.15625 -0.4394531,0.3613281 -0.2099609,0.2734375 -0.2880859,0.600586 -0.073242,0.3271484 -0.073242,1.4208984 z"
       style="font-size:10px;font-family:AlteDIN1451Mittelschrift;fill:#ffffff"
       id="path1452" /><path
       d="m 13.28125,-6.1523437 v 2.1582031 h 1.630859 q 0.605469,0 0.908204,-0.3369141 0.302734,-0.336914 0.302734,-0.7910156 0,-0.5419922 -0.361328,-0.8105469 -0.302735,-0.2197265 -0.786133,-0.2197265 z M 12.202148,0.00488281 V -7.109375 h 2.783204 q 0.913086,0 1.445312,0.46875 0.297852,0.2587891 0.50293,0.6494141 0.209961,0.390625 0.209961,0.8691406 0,0.6884766 -0.371094,1.2207031 -0.366211,0.5273438 -1.010742,0.7470703 l 1.65039,3.15917971 H 16.132812 L 14.663086,-3.0322266 H 13.28125 v 3.03710941 z"
       style="font-size:10px;font-family:AlteDIN1451Mittelschrift;fill:#ffffff"
       id="path1454" /></g><g
     aria-label="R"
     transform="matrix(1 0 0 1 265.6266 71.6226)"
     style="font-size:10px;font-family:AlteDIN1451Mittelschrift;fill:#ffffff"
     id="text104"><path
       d="m 1.8359375,-6.1523437 v 2.1582031 h 1.6308594 q 0.6054687,0 0.9082031,-0.3369141 0.3027344,-0.336914 0.3027344,-0.7910156 0,-0.5419922 -0.3613282,-0.8105469 Q 4.0136719,-6.1523437 3.5302734,-6.1523437 Z M 0.75683594,0.00488281 V -7.109375 H 3.5400391 q 0.9130859,0 1.4453125,0.46875 0.2978515,0.2587891 0.5029296,0.6494141 0.209961,0.390625 0.209961,0.8691406 0,0.6884766 -0.3710938,1.2207031 -0.3662109,0.5273438 -1.0107422,0.7470703 L 5.9667969,0.00488281 H 4.6875 L 3.2177734,-3.0322266 H 1.8359375 v 3.03710941 z"
       style="font-size:10px;font-family:AlteDIN1451Mittelschrift;fill:#ffffff"
       id="path1414" /></g><g
     aria-label="L"
     transform="matrix(1 0 0 1 265.6266 62.6074)"
     style="font-size:10px;font-family:AlteDIN1451Mittelschrift;fill:#ffffff"
     id="text106"><path
       d="M 0.75683594,0.00488281 V -7.109375 H 1.8359375 v 6.0986328 h 3.4716797 v 1.01562501 z"
       style="font-size:10px;font-family:AlteDIN1451Mittelschrift;fill:#ffffff"
       id="path1411" /></g><g
     aria-label="L"
     transform="matrix(1 0 0 1 136.7271 21.9509)"
     style="font-size:10px;font-family:AlteDIN1451Mittelschrift;fill:#ffffff"
     id="text108"><path
       d="M 0.75683594,0.00488281 V -7.109375 H 1.8359375 v 6.0986328 h 3.4716797 v 1.01562501 z"
       style="font-size:10px;font-family:AlteDIN1451Mittelschrift;fill:#ffffff"
       id="path1344" /></g><g
     id="g118"><g
       id="g116"><line
         class="st8"
         x1="254.4"
         y1="6.8"
         x2="262.5"
         y2="6.8"
         id="line110" /><g
         id="g114"><polygon
           class="st0"
           points="259.5,9.3 262,6.8 259.5,4.2 261.6,4.2 264.2,6.8 261.6,9.3    "
           id="polygon112" /></g></g></g><g
     id="g128"><g
       id="g126"><line
         class="st8"
         x1="103.4"
         y1="99.7"
         x2="111.5"
         y2="99.7"
         id="line120" /><g
         id="g124"><polygon
           class="st0"
           points="108.5,102.3 111.1,99.7 108.5,97.2 110.7,97.2 113.2,99.7 110.7,102.3    "
           id="polygon122" /></g></g></g><g
     id="g138"><g
       id="g136"><line
         class="st8"
         x1="103.4"
         y1="117.8"
         x2="111.5"
         y2="117.8"
         id="line130" /><g
         id="g134"><polygon
           class="st0"
           points="108.5,120.4 111.1,117.8 108.5,115.3 110.7,115.3 113.2,117.8 110.7,120.4    "
           id="polygon132" /></g></g></g><g
     id="g148"><g
       id="g146"><line
         class="st9"
         x1="57.5"
         y1="56"
         x2="143.8"
         y2="56"
         id="line140" /><g
         id="g144"><polygon
           class="st10"
           points="140.8,58.5 143.4,56 140.8,53.4 143,53.4 145.5,56 143,58.5    "
           id="polygon142" /></g></g></g><g
     id="g158"><g
       id="g156"><line
         class="st4"
         x1="17.4"
         y1="47"
         x2="29.8"
         y2="47"
         id="line150" /><g
         id="g154"><polygon
           class="st5"
           points="26.8,49.5 29.4,47 26.8,44.4 29,44.4 31.5,47 29,49.5    "
           id="polygon152" /></g></g></g><g
     id="g168"><g
       id="g166"><line
         class="st9"
         x1="17.4"
         y1="56"
         x2="29.8"
         y2="56"
         id="line160" /><g
         id="g164"><polygon
           class="st10"
           points="26.8,58.5 29.4,56 26.8,53.4 29,53.4 31.5,56 29,58.5    "
           id="polygon162" /></g></g></g><g
     id="g178"><g
       id="g176"><line
         class="st4"
         x1="17.4"
         y1="71"
         x2="29.8"
         y2="71"
         id="line170" /><g
         id="g174"><polygon
           class="st5"
           points="26.8,73.5 29.4,71 26.8,68.4 29,68.4 31.5,71 29,73.5    "
           id="polygon172" /></g></g></g><g
     id="g188"><g
       id="g186"><line
         class="st9"
         x1="17.4"
         y1="80"
         x2="29.8"
         y2="80"
         id="line180" /><g
         id="g184"><polygon
           class="st10"
           points="26.8,82.5 29.4,80 26.8,77.4 29,77.4 31.5,80 29,82.5    "
           id="polygon182" /></g></g></g><g
     id="g198"><g
       id="g196"><line
         class="st4"
         x1="209.8"
         y1="59"
         x2="262.5"
         y2="59"
         id="line190" /><g
         id="g194"><polygon
           class="st5"
           points="259.5,61.5 262,59 259.5,56.4 261.6,56.4 264.2,59 261.6,61.5    "
           id="polygon192" /></g></g></g><g
     id="g208"><g
       id="g206"><line
         class="st4"
         x1="227.9"
         y1="34.8"
         x2="237.3"
         y2="34.8"
         id="line200" /><g
         id="g204"><polygon
           class="st5"
           points="234.3,37.4 236.8,34.8 234.3,32.3 236.5,32.3 239,34.8 236.5,37.4    "
           id="polygon202" /></g></g></g><g
     id="g218"><g
       id="g216"><line
         class="st9"
         x1="209.8"
         y1="68"
         x2="262.5"
         y2="68"
         id="line210" /><g
         id="g214"><polygon
           class="st10"
           points="259.5,70.5 262,68 259.5,65.4 261.6,65.4 264.2,68 261.6,70.5    "
           id="polygon212" /></g></g></g><g
     id="g228"><g
       id="g226"><line
         class="st8"
         x1="284"
         y1="29.3"
         x2="294.8"
         y2="29.3"
         id="line220" /><g
         id="g224"><polygon
           class="st0"
           points="291.8,31.9 294.3,29.3 291.8,26.8 293.9,26.8 296.5,29.3 293.9,31.9    "
           id="polygon222" /></g></g></g><g
     id="g238"><g
       id="g236"><line
         class="st8"
         x1="284"
         y1="40.3"
         x2="294.8"
         y2="40.3"
         id="line230" /><g
         id="g234"><polygon
           class="st0"
           points="291.8,42.9 294.3,40.3 291.8,37.8 293.9,37.8 296.5,40.3 293.9,42.9    "
           id="polygon232" /></g></g></g><g
     id="g248"><g
       id="g246"><line
         class="st8"
         x1="284"
         y1="86.5"
         x2="294.8"
         y2="86.5"
         id="line240" /><g
         id="g244"><polygon
           class="st0"
           points="291.8,89 294.3,86.5 291.8,83.9 293.9,83.9 296.5,86.5 293.9,89    "
           id="polygon242" /></g></g></g><g
     id="g258"><g
       id="g256"><line
         class="st8"
         x1="284"
         y1="97.5"
         x2="294.8"
         y2="97.5"
         id="line250" /><g
         id="g254"><polygon
           class="st0"
           points="291.8,100 294.3,97.5 291.8,94.9 293.9,94.9 296.5,97.5 293.9,100    "
           id="polygon252" /></g></g></g><g
     aria-label="R"
     transform="matrix(1 0 0 1 8.6281 59.6226)"
     style="font-size:10px;font-family:AlteDIN1451Mittelschrift;fill:#ffffff"
     id="text260"><path
       d="m 1.8359375,-6.1523437 v 2.1582031 h 1.6308594 q 0.6054687,0 0.9082031,-0.3369141 0.3027344,-0.336914 0.3027344,-0.7910156 0,-0.5419922 -0.3613282,-0.8105469 Q 4.0136719,-6.1523437 3.5302734,-6.1523437 Z M 0.75683594,0.00488281 V -7.109375 H 3.5400391 q 0.9130859,0 1.4453125,0.46875 0.2978515,0.2587891 0.5029296,0.6494141 0.209961,0.390625 0.209961,0.8691406 0,0.6884766 -0.3710938,1.2207031 -0.3662109,0.5273438 -1.0107422,0.7470703 L 5.9667969,0.00488281 H 4.6875 L 3.2177734,-3.0322266 H 1.8359375 v 3.03710941 z"
       style="font-size:10px;font-family:AlteDIN1451Mittelschrift;fill:#ffffff"
       id="path1320" /></g><g
     aria-label="L"
     transform="matrix(1 0 0 1 8.6281 50.6074)"
     style="font-size:10px;font-family:AlteDIN1451Mittelschrift;fill:#ffffff"
     id="text262"><path
       d="M 0.75683594,0.00488281 V -7.109375 H 1.8359375 v 6.0986328 h 3.4716797 v 1.01562501 z"
       style="font-size:10px;font-family:AlteDIN1451Mittelschrift;fill:#ffffff"
       id="path1323" /></g><g
     aria-label="R"
     transform="matrix(1 0 0 1 8.6281 83.6226)"
     style="font-size:10px;font-family:AlteDIN1451Mittelschrift;fill:#ffffff"
     id="text264"><path
       d="m 1.8359375,-6.1523437 v 2.1582031 h 1.6308594 q 0.6054687,0 0.9082031,-0.3369141 0.3027344,-0.336914 0.3027344,-0.7910156 0,-0.5419922 -0.3613282,-0.8105469 Q 4.0136719,-6.1523437 3.5302734,-6.1523437 Z M 0.75683594,0.00488281 V -7.109375 H 3.5400391 q 0.9130859,0 1.4453125,0.46875 0.2978515,0.2587891 0.5029296,0.6494141 0.209961,0.390625 0.209961,0.8691406 0,0.6884766 -0.3710938,1.2207031 -0.3662109,0.5273438 -1.0107422,0.7470703 L 5.9667969,0.00488281 H 4.6875 L 3.2177734,-3.0322266 H 1.8359375 v 3.03710941 z"
       style="font-size:10px;font-family:AlteDIN1451Mittelschrift;fill:#ffffff"
       id="path1314" /></g><g
     aria-label="L"
     transform="matrix(1 0 0 1 8.6281 74.6074)"
     style="font-size:10px;font-family:AlteDIN1451Mittelschrift;fill:#ffffff"
     id="text266"><path
       d="M 0.75683594,0.00488281 V -7.109375 H 1.8359375 v 6.0986328 h 3.4716797 v 1.01562501 z"
       style="font-size:10px;font-family:AlteDIN1451Mittelschrift;fill:#ffffff"
       id="path1317" /></g><g
     id="g276"><g
       id="g274"><line
         class="st11"
         x1="57.5"
         y1="71"
         x2="143.8"
         y2="71"
         id="line268" /><g
         id="g272"><polygon
           class="st5"
           points="140.8,73.5 143.4,71 140.8,68.4 143,68.4 145.5,71 143,73.5    "
           id="polygon270" /></g></g></g><g
     id="g286"><g
       id="g284"><line
         class="st9"
         x1="57.5"
         y1="80"
         x2="143.8"
         y2="80"
         id="line278" /><g
         id="g282"><polygon
           class="st10"
           points="140.8,82.5 143.4,80 140.8,77.4 143,77.4 145.5,80 143,82.5    "
           id="polygon280" /></g></g></g><line
     class="st11"
     x1="77"
     y1="46.2"
     x2="77"
     y2="6.8"
     id="line288" /><line
     class="st11"
     x1="71.3"
     y1="71"
     x2="71.3"
     y2="11.9"
     id="line290" /><line
     class="st11"
     x1="227.9"
     y1="59"
     x2="227.9"
     y2="4.4"
     id="line292" /><line
     class="st9"
     x1="222.3"
     y1="68"
     x2="222.3"
     y2="9.1"
     id="line294" /><line
     class="st9"
     x1="222.3"
     y1="68"
     x2="222.3"
     y2="120.2"
     id="line296" /><line
     class="st4"
     x1="227.9"
     y1="59"
     x2="227.9"
     y2="115.4"
     id="line298" /><line
     class="st11"
     x1="77"
     y1="6.8"
     x2="92.5"
     y2="6.8"
     id="line300" /><line
     class="st11"
     x1="227.9"
     y1="4.4"
     x2="243.5"
     y2="4.4"
     id="line302" /><line
     class="st12"
     x1="222.3"
     y1="9.1"
     x2="243.5"
     y2="9.1"
     id="line304" /><line
     class="st11"
     x1="227.9"
     y1="115.4"
     x2="241.9"
     y2="115.5"
     id="line306" /><line
     class="st12"
     x1="222.3"
     y1="120.2"
     x2="241.9"
     y2="120.2"
     id="line308" /><line
     class="st11"
     x1="71.3"
     y1="11.5"
     x2="92.5"
     y2="11.5"
     id="line310" /><g
     aria-label="R"
     transform="matrix(1 0 0 1 136.7271 112.5717)"
     style="font-size:10px;font-family:AlteDIN1451Mittelschrift;fill:#ffffff"
     id="text312"><path
       d="m 1.8359375,-6.1523437 v 2.1582031 h 1.6308594 q 0.6054687,0 0.9082031,-0.3369141 0.3027344,-0.336914 0.3027344,-0.7910156 0,-0.5419922 -0.3613282,-0.8105469 Q 4.0136719,-6.1523437 3.5302734,-6.1523437 Z M 0.75683594,0.00488281 V -7.109375 H 3.5400391 q 0.9130859,0 1.4453125,0.46875 0.2978515,0.2587891 0.5029296,0.6494141 0.209961,0.390625 0.209961,0.8691406 0,0.6884766 -0.3710938,1.2207031 -0.3662109,0.5273438 -1.0107422,0.7470703 L 5.9667969,0.00488281 H 4.6875 L 3.2177734,-3.0322266 H 1.8359375 v 3.03710941 z"
       style="font-size:10px;font-family:AlteDIN1451Mittelschrift;fill:#ffffff"
       id="path1378" /></g><g
     aria-label="Z"
     transform="matrix(1 0 0 1 273.135 67.0653)"
     style="font-size:10px;font-family:AlteDIN1451Mittelschrift;fill:#ffffff"
     id="text314"><path
       d="m 0.32714844,0.00488281 v -0.8984375 L 3.5595703,-6.1523437 H 0.45898438 V -7.109375 H 4.8779297 v 0.8105469 l -3.2421875,5.2880859 h 3.2421875 v 1.01562501 z"
       style="font-size:10px;font-family:AlteDIN1451Mittelschrift;fill:#ffffff"
       id="path1408" /></g><g
     aria-label="X"
     transform="matrix(1 0 0 1 1.088 55.0622)"
     style="font-size:10px;font-family:AlteDIN1451Mittelschrift;fill:#ffffff"
     id="text316"><path
       d="M 4.2480469,0.00488281 2.6904297,-2.6416016 1.1279297,0.00488281 H -0.08789062 L 2.0898438,-3.6425781 0.04882812,-7.109375 H 1.2695312 L 2.6904297,-4.6435547 4.1064453,-7.109375 H 5.3271484 L 3.2861328,-3.6425781 5.46875,0.00488281 Z"
       style="font-size:10px;font-family:AlteDIN1451Mittelschrift;fill:#ffffff"
       id="path1308" /></g><g
     aria-label="Y"
     transform="matrix(1 0 0 1 1.2662 79.0621)"
     style="font-size:10px;font-family:AlteDIN1451Mittelschrift;fill:#ffffff"
     id="text318"><path
       d="M 1.9970703,0.00488281 V -2.9199219 L -0.13671875,-7.109375 h 1.1328125 L 2.5097656,-3.9501953 4.0185547,-7.109375 H 5.15625 l -2.1386719,4.1894531 v 2.92480471 z"
       style="font-size:10px;font-family:AlteDIN1451Mittelschrift;fill:#ffffff"
       id="path1311" /></g><line
     class="st11"
     x1="77"
     y1="24.8"
     x2="90.9"
     y2="24.8"
     id="line320" /><line
     class="st11"
     x1="71.3"
     y1="29.6"
     x2="90.9"
     y2="29.6"
     id="line322" /><circle
     class="st11"
     cx="71.3"
     cy="29.6"
     r="0.9"
     id="circle324" /><circle
     class="st11"
     cx="71.3"
     cy="71"
     r="0.9"
     id="circle326" /><circle
     class="st11"
     cx="227.9"
     cy="59"
     r="0.9"
     id="circle328" /><circle
     class="st11"
     cx="227.9"
     cy="34.8"
     r="0.9"
     id="circle330" /><circle
     class="st11"
     cx="77"
     cy="24.8"
     r="0.9"
     id="circle332" /><circle
     class="st11"
     cx="77"
     cy="47"
     r="0.9"
     id="circle334" /><line
     class="st12"
     x1="77"
     y1="80.8"
     x2="77"
     y2="120.2"
     id="line336" /><line
     class="st12"
     x1="65.3"
     y1="56"
     x2="65.3"
     y2="115.1"
     id="line338" /><line
     class="st12"
     x1="77"
     y1="120.2"
     x2="92.5"
     y2="120.2"
     id="line340" /><line
     class="st12"
     x1="65.3"
     y1="115.5"
     x2="92.5"
     y2="115.5"
     id="line342" /><line
     class="st12"
     x1="77"
     y1="102.1"
     x2="90.9"
     y2="102.1"
     id="line344" /><line
     class="st12"
     x1="65.3"
     y1="97.4"
     x2="90.5"
     y2="97.4"
     id="line346" /><circle
     class="st12"
     cx="65.3"
     cy="97.4"
     r="0.9"
     id="circle348" /><circle
     class="st12"
     cx="77"
     cy="102.1"
     r="0.9"
     id="circle350" /><circle
     class="st12"
     cx="65.3"
     cy="56"
     r="0.9"
     id="circle352" /><circle
     class="st12"
     cx="77"
     cy="80"
     r="0.9"
     id="circle354" /><circle
     class="st12"
     cx="222.3"
     cy="68"
     r="0.9"
     id="circle356" /><circle
     class="st12"
     cx="222.3"
     cy="92"
     r="0.9"
     id="circle358" /><g
     id="g372"><path
       class="st8"
       d="M93.1,4.4h3.4"
       id="path360" /><line
       class="st8"
       x1="93.1"
       y1="13.9"
       x2="96.5"
       y2="13.9"
       id="line362" /><path
       class="st13"
       d="M96.1,4.4c5.7,0.1,7.3,4.8,7.3,4.8"
       id="path364" /><path
       class="st8"
       d="M96.1,13.9c5.7-0.1,7.3-4.8,7.3-4.8"
       id="path366" /><path
       class="st13"
       d="M93.1,13.9c0.3-0.3,2-2,2-4.8c0-2.7-1.7-4.4-2-4.7"
       id="path368" /><path
       class="st13"
       d="M90.9,13.9c0.3-0.3,2-2,2-4.8c0-2.7-1.7-4.4-2-4.7"
       id="path370" /></g><g
     id="g378"><polyline
       class="st8"
       points="98.7,32 90.9,32 90.9,22.5 98.7,22.5  "
       id="polyline374" /><path
       class="st8"
       d="M98.7,22.5c2.6,0,4.8,2.1,4.8,4.8s-2.1,4.8-4.8,4.8"
       id="path376" /></g><g
     id="g388"><g
       id="g386"><line
         class="st8"
         x1="254.4"
         y1="117.8"
         x2="262.5"
         y2="117.8"
         id="line380" /><g
         id="g384"><polygon
           class="st0"
           points="259.5,120.4 262,117.8 259.5,115.3 261.6,115.3 264.2,117.8 261.6,120.4    "
           id="polygon382" /></g></g></g><g
     id="g402"><path
       class="st8"
       d="M244.1,2h3.4"
       id="path390" /><line
       class="st8"
       x1="244.1"
       y1="11.5"
       x2="247.5"
       y2="11.5"
       id="line392" /><path
       class="st13"
       d="M247.1,2c5.7,0.1,7.3,4.8,7.3,4.8"
       id="path394" /><path
       class="st8"
       d="M247.1,11.5c5.7-0.1,7.3-4.8,7.3-4.8"
       id="path396" /><path
       class="st13"
       d="M244.1,11.5c0.3-0.3,2-2,2-4.8c0-2.7-1.7-4.4-2-4.7"
       id="path398" /><path
       class="st13"
       d="M241.9,11.5c0.3-0.3,2-2,2-4.8c0-2.7-1.7-4.4-2-4.7"
       id="path400" /></g><g
     id="g408"><polyline
       class="st8"
       points="249.6,122.6 241.9,122.6 241.9,113.1 249.6,113.1  "
       id="polyline404" /><path
       class="st8"
       d="M249.6,113.1c2.6,0,4.8,2.1,4.8,4.8c0,2.6-2.1,4.8-4.8,4.8"
       id="path406" /></g><g
     id="g414"><polyline
       class="st8"
       points="98.7,95 90.9,95 90.9,104.5 98.7,104.5  "
       id="polyline410" /><path
       class="st8"
       d="M98.7,104.5c2.6,0,4.8-2.1,4.8-4.8c0-2.6-2.1-4.8-4.8-4.8"
       id="path412" /></g><g
     id="g428"><path
       class="st8"
       d="M93.1,122.6h3.4"
       id="path416" /><line
       class="st8"
       x1="93.1"
       y1="113.1"
       x2="96.5"
       y2="113.1"
       id="line418" /><path
       class="st13"
       d="M96.1,122.6c5.7-0.1,7.3-4.8,7.3-4.8"
       id="path420" /><path
       class="st8"
       d="M96.1,113.1c5.7,0.1,7.3,4.8,7.3,4.8"
       id="path422" /><path
       class="st13"
       d="M93.1,113.1c0.3,0.3,2,2,2,4.8c0,2.7-1.7,4.4-2,4.7"
       id="path424" /><path
       class="st13"
       d="M90.9,113.1c0.3,0.3,2,2,2,4.8c0,2.7-1.7,4.4-2,4.7"
       id="path426" /></g><g
     id="g438"><g
       id="g436"><line
         class="st9"
         x1="222.3"
         y1="92"
         x2="237.3"
         y2="92"
         id="line430" /><g
         id="g434"><polygon
           class="st10"
           points="234.3,94.5 236.8,92 234.3,89.4 236.5,89.4 239,92 236.5,94.5    "
           id="polygon432" /></g></g></g><line
     class="st13"
     x1="311.5"
     y1="32.2"
     x2="311.5"
     y2="25.2"
     id="line440" /><line
     class="st13"
     x1="305.8"
     y1="32.2"
     x2="305.8"
     y2="25.2"
     id="line442" /><line
     class="st13"
     x1="311.5"
     y1="25.2"
     x2="305.8"
     y2="25.2"
     id="line444" /><line
     class="st13"
     x1="305.8"
     y1="32.2"
     x2="300.1"
     y2="32.2"
     id="line446" /><line
     class="st13"
     x1="311.5"
     y1="90"
     x2="311.5"
     y2="83"
     id="line448" /><line
     class="st13"
     x1="305.8"
     y1="90"
     x2="305.8"
     y2="83"
     id="line450" /><line
     class="st13"
     x1="311.5"
     y1="83"
     x2="305.8"
     y2="83"
     id="line452" /><line
     class="st13"
     x1="305.8"
     y1="90"
     x2="300.1"
     y2="90"
     id="line454" /><line
     class="st13"
     x1="311.5"
     y1="101"
     x2="311.5"
     y2="94"
     id="line456" /><line
     class="st13"
     x1="308.7"
     y1="101"
     x2="308.7"
     y2="94"
     id="line458" /><line
     class="st13"
     x1="311.5"
     y1="94"
     x2="308.7"
     y2="94"
     id="line460" /><line
     class="st13"
     x1="305.8"
     y1="101"
     x2="305.8"
     y2="94"
     id="line462" /><line
     class="st13"
     x1="302.9"
     y1="101"
     x2="302.9"
     y2="94"
     id="line464" /><line
     class="st13"
     x1="305.8"
     y1="94"
     x2="302.9"
     y2="94"
     id="line466" /><line
     class="st13"
     x1="308.7"
     y1="101"
     x2="305.8"
     y2="101"
     id="line468" /><line
     class="st13"
     x1="302.9"
     y1="101"
     x2="300.1"
     y2="101"
     id="line470" /><line
     class="st13"
     x1="311.5"
     y1="43.8"
     x2="311.5"
     y2="36.8"
     id="line472" /><line
     class="st13"
     x1="308.7"
     y1="43.8"
     x2="308.7"
     y2="36.8"
     id="line474" /><line
     class="st13"
     x1="311.5"
     y1="36.8"
     x2="308.7"
     y2="36.8"
     id="line476" /><line
     class="st13"
     x1="305.8"
     y1="43.8"
     x2="305.8"
     y2="36.8"
     id="line478" /><line
     class="st13"
     x1="302.9"
     y1="43.8"
     x2="302.9"
     y2="36.8"
     id="line480" /><line
     class="st13"
     x1="305.8"
     y1="36.8"
     x2="302.9"
     y2="36.8"
     id="line482" /><line
     class="st13"
     x1="308.7"
     y1="43.8"
     x2="305.8"
     y2="43.8"
     id="line484" /><line
     class="st13"
     x1="302.9"
     y1="43.8"
     x2="300.1"
     y2="43.8"
     id="line486" /><g
     id="g490"><path
       class="st0"
       d="M56.5,67.4v16.2H32.5V67.4H56.5 M57.5,66.4H31.5v18.2h25.9V66.4L57.5,66.4z"
       id="path488" /></g><g
     aria-label="Gain"
     transform="matrix(1 0 0 1 35.1606 54.4964)"
     style="font-size:10px;font-family:AlteDIN1451Mittelschrift;fill:#ffffff"
     id="text492"><path
       d="m 3.0664063,-2.890625 v -1.0205078 h 2.5292968 v 1.4501953 q 0,1.0595703 -0.7373047,1.79199219 -0.7373047,0.73242187 -1.8017578,0.73242187 -0.8398437,0 -1.4111328,-0.40039062 Q 1.0791016,-0.7421875 0.83007813,-1.2109375 0.65429687,-1.5234375 0.5859375,-1.8945312 0.51757812,-2.265625 0.51757812,-3.5498047 q 0,-1.2841797 0.0683594,-1.6552734 0.0683594,-0.3710938 0.24414063,-0.6835938 0.24902347,-0.4638672 0.81542967,-0.8740234 0.5712891,-0.4101563 1.4111328,-0.4101563 1.0107422,0 1.6699219,0.625 0.6640625,0.6201172 0.8300781,1.484375 H 4.4189453 Q 4.2871094,-5.4736328 3.9257813,-5.78125 3.5693359,-6.0888672 3.0566406,-6.0888672 q -0.3808593,0 -0.6591797,0.15625 -0.2783203,0.15625 -0.4394531,0.3613281 -0.2099609,0.2734375 -0.2880859,0.600586 -0.073242,0.3271484 -0.073242,1.4208984 0,1.0986328 0.073242,1.4257813 0.078125,0.3271484 0.2880859,0.5908203 0.1611328,0.2148437 0.4394531,0.3710937 0.2783204,0.1513672 0.6591797,0.1513672 0.6152344,0 1.0351563,-0.4199219 0.4248047,-0.4199218 0.4248047,-1.09375 V -2.890625 Z"
       style="font-size:10px;font-family:AlteDIN1451Mittelschrift;fill:#ffffff"
       id="path1335" /><path
       d="M 9.4482422,0.02441406 V -0.42480469 H 9.4287109 Q 9.2871094,-0.16113281 9.0039063,-0.04394531 8.7011719,0.08300781 8.2128906,0.08300781 7.3730469,0.06347656 6.9433594,-0.36621094 q -0.46875,-0.4296875 -0.46875,-1.09863276 0,-0.6347657 0.4052734,-1.0644532 Q 7.2851562,-2.9589844 8.0761719,-2.96875 H 9.4482422 V -3.5058594 Q 9.453125,-4.1796875 8.4375,-4.1601562 q -0.3515625,0 -0.5859375,0.078125 -0.2294922,0.102539 -0.3466797,0.3173828 l -0.78125,-0.6152344 q 0.5664063,-0.7568359 1.6650391,-0.7373047 0.9228515,-0.00977 1.484375,0.3613281 0.5517581,0.3857422 0.5615231,1.3085938 v 3.47167966 z m 0,-1.78222656 V -2.1289063 H 8.2617188 q -0.8691407,0.024414 -0.8593751,0.6152344 0,0.2539063 0.2246094,0.4394532 0.2148438,0.20019526 0.7080078,0.20019526 0.625,0.009766 0.8789063,-0.15136716 0.234375,-0.1611328 0.234375,-0.7324219 z"
       style="font-size:10px;font-family:AlteDIN1451Mittelschrift;fill:#ffffff"
       id="path1337" /><path
       d="M 11.59668,0.00488281 V -5.0634766 h 1.020508 v 5.06835941 z m 0,-6.09375001 V -7.109375 h 1.020508 v 1.0205078 z"
       style="font-size:10px;font-family:AlteDIN1451Mittelschrift;fill:#ffffff"
       id="path1339" /><path
       d="M 13.969727,0.00488281 V -5.0634766 h 1.020507 v 0.5419922 h 0.01953 q 0.473632,-0.6005859 1.318359,-0.6005859 0.59082,0 1.137695,0.4492187 0.551758,0.4492188 0.551758,1.3085938 V 0.00488281 H 16.99707 V -3.0126953 q 0,-0.5126953 -0.288086,-0.8007813 -0.283203,-0.2880859 -0.708007,-0.2880859 -0.439454,0 -0.727539,0.2880859 -0.283204,0.288086 -0.283204,0.8007813 v 3.01757811 z"
       style="font-size:10px;font-family:AlteDIN1451Mittelschrift;fill:#ffffff"
       id="path1341" /></g><g
     aria-label="Gain"
     transform="matrix(1 0 0 1 35.1606 78.4964)"
     style="font-size:10px;font-family:AlteDIN1451Mittelschrift;fill:#ffffff"
     id="text494"><path
       d="m 3.0664063,-2.890625 v -1.0205078 h 2.5292968 v 1.4501953 q 0,1.0595703 -0.7373047,1.79199219 -0.7373047,0.73242187 -1.8017578,0.73242187 -0.8398437,0 -1.4111328,-0.40039062 Q 1.0791016,-0.7421875 0.83007813,-1.2109375 0.65429687,-1.5234375 0.5859375,-1.8945312 0.51757812,-2.265625 0.51757812,-3.5498047 q 0,-1.2841797 0.0683594,-1.6552734 0.0683594,-0.3710938 0.24414063,-0.6835938 0.24902347,-0.4638672 0.81542967,-0.8740234 0.5712891,-0.4101563 1.4111328,-0.4101563 1.0107422,0 1.6699219,0.625 0.6640625,0.6201172 0.8300781,1.484375 H 4.4189453 Q 4.2871094,-5.4736328 3.9257813,-5.78125 3.5693359,-6.0888672 3.0566406,-6.0888672 q -0.3808593,0 -0.6591797,0.15625 -0.2783203,0.15625 -0.4394531,0.3613281 -0.2099609,0.2734375 -0.2880859,0.600586 -0.073242,0.3271484 -0.073242,1.4208984 0,1.0986328 0.073242,1.4257813 0.078125,0.3271484 0.2880859,0.5908203 0.1611328,0.2148437 0.4394531,0.3710937 0.2783204,0.1513672 0.6591797,0.1513672 0.6152344,0 1.0351563,-0.4199219 0.4248047,-0.4199218 0.4248047,-1.09375 V -2.890625 Z"
       style="font-size:10px;font-family:AlteDIN1451Mittelschrift;fill:#ffffff"
       id="path1326" /><path
       d="M 9.4482422,0.02441406 V -0.42480469 H 9.4287109 Q 9.2871094,-0.16113281 9.0039063,-0.04394531 8.7011719,0.08300781 8.2128906,0.08300781 7.3730469,0.06347656 6.9433594,-0.36621094 q -0.46875,-0.4296875 -0.46875,-1.09863276 0,-0.6347657 0.4052734,-1.0644532 Q 7.2851562,-2.9589844 8.0761719,-2.96875 H 9.4482422 V -3.5058594 Q 9.453125,-4.1796875 8.4375,-4.1601562 q -0.3515625,0 -0.5859375,0.078125 -0.2294922,0.102539 -0.3466797,0.3173828 l -0.78125,-0.6152344 q 0.5664063,-0.7568359 1.6650391,-0.7373047 0.9228515,-0.00977 1.484375,0.3613281 0.5517581,0.3857422 0.5615231,1.3085938 v 3.47167966 z m 0,-1.78222656 V -2.1289063 H 8.2617188 q -0.8691407,0.024414 -0.8593751,0.6152344 0,0.2539063 0.2246094,0.4394532 0.2148438,0.20019526 0.7080078,0.20019526 0.625,0.009766 0.8789063,-0.15136716 0.234375,-0.1611328 0.234375,-0.7324219 z"
       style="font-size:10px;font-family:AlteDIN1451Mittelschrift;fill:#ffffff"
       id="path1328" /><path
       d="M 11.59668,0.00488281 V -5.0634766 h 1.020508 v 5.06835941 z m 0,-6.09375001 V -7.109375 h 1.020508 v 1.0205078 z"
       style="font-size:10px;font-family:AlteDIN1451Mittelschrift;fill:#ffffff"
       id="path1330" /><path
       d="M 13.969727,0.00488281 V -5.0634766 h 1.020507 v 0.5419922 h 0.01953 q 0.473632,-0.6005859 1.318359,-0.6005859 0.59082,0 1.137695,0.4492187 0.551758,0.4492188 0.551758,1.3085938 V 0.00488281 H 16.99707 V -3.0126953 q 0,-0.5126953 -0.288086,-0.8007813 -0.283203,-0.2880859 -0.708007,-0.2880859 -0.439454,0 -0.727539,0.2880859 -0.283204,0.288086 -0.283204,0.8007813 v 3.01757811 z"
       style="font-size:10px;font-family:AlteDIN1451Mittelschrift;fill:#ffffff"
       id="path1332" /></g></svg>