<svg id="Layer_1" data-name="Layer 1" xmlns="http://www.w3.org/2000/svg" viewBox="0 0 761.51 896.17"><defs><style>.cls-1,.cls-10,.cls-11,.cls-12,.cls-13,.cls-15,.cls-2,.cls-20,.cls-21,.cls-23,.cls-24,.cls-3,.cls-4,.cls-5,.cls-6,.cls-7,.cls-8,.cls-9{fill:none;}.cls-1{stroke:#2c3266;}.cls-1,.cls-10,.cls-11,.cls-12,.cls-13,.cls-15,.cls-2,.cls-20,.cls-21,.cls-22,.cls-23,.cls-24,.cls-3,.cls-4,.cls-5,.cls-6,.cls-7,.cls-8,.cls-9{stroke-miterlimit:10;stroke-width:4px;}.cls-2{stroke:#373f80;}.cls-3{stroke:#434a99;}.cls-4{stroke:#5963cc;}.cls-5,.cls-6,.cls-7,.cls-8,.cls-9{stroke:#a6a8ab;}.cls-6{stroke-dasharray:11.79 11.79;}.cls-7{stroke-dasharray:11.76 11.76;}.cls-8{stroke-dasharray:11.79 11.79;}.cls-9{stroke-dasharray:11.32 11.32;}.cls-10{stroke:#0084ff;}.cls-11{stroke:#ec1848;}.cls-12,.cls-23{stroke:#6f7cff;}.cls-13,.cls-15,.cls-22,.cls-24{stroke:#f1f1f2;}.cls-14,.cls-22{fill:#f1f1f2;}.cls-15{stroke-linecap:square;}.cls-16{font-size:18px;}.cls-16,.cls-17,.cls-19{fill:#e6e7e8;}.cls-16,.cls-17,.cls-18{font-family:AlteDIN1451Mittelschrift, "Alte DIN 1451 Mittelschrift";}.cls-17,.cls-18{font-size:20px;}.cls-18{fill:#fff;}.cls-19{font-size:22px;font-family:AlteDIN1451Mittelschriftgepraegt, "Alte DIN 1451 Mittelschrift gepraegt";}.cls-20{stroke:#29b473;}.cls-21{stroke:#ffc50a;}.cls-23,.cls-24{stroke-linecap:round;}</style></defs><polyline class="cls-1" points="427.19 287.24 427.19 273.2 558.79 273.2 558.79 359.32 544.75 359.32"/><polyline class="cls-2" points="413.15 301.15 413.15 287.24 427.19 287.24 544.75 287.24 544.75 359.32 544.75 373.36 530.85 373.36"/><polyline class="cls-3" points="399.24 315.06 399.24 301.15 427.19 301.15 530.85 301.15 530.85 359.32 530.85 387.27 516.94 387.27"/><polyline class="cls-4" points="385.33 328.96 385.33 315.06 516.94 315.06 516.94 401.18 503.03 401.18"/><line class="cls-5" x1="428.81" y1="46.71" x2="434.81" y2="46.71"/><line class="cls-6" x1="446.6" y1="46.71" x2="582.13" y2="46.71"/><polyline class="cls-5" points="588.02 46.71 594.02 46.71 594.02 52.71"/><line class="cls-7" x1="594.02" y1="64.47" x2="594.02" y2="434.83"/><polyline class="cls-5" points="594.02 440.71 594.02 446.71 588.02 446.71"/><line class="cls-8" x1="576.23" y1="446.71" x2="181.42" y2="446.71"/><polyline class="cls-5" points="175.52 446.71 169.52 446.71 169.52 440.71"/><line class="cls-7" x1="169.52" y1="428.95" x2="169.52" y2="58.59"/><polyline class="cls-5" points="169.52 52.71 169.52 46.71 175.52 46.71"/><line class="cls-9" x1="186.84" y1="46.71" x2="316.98" y2="46.71"/><line class="cls-5" x1="322.64" y1="46.71" x2="328.64" y2="46.71"/><rect class="cls-10" x="202.58" y="77.4" width="131.61" height="90"/><rect class="cls-11" x="202.66" y="218.83" width="131.61" height="80"/><rect class="cls-12" x="371.43" y="328.97" width="131.61" height="86.12"/><rect class="cls-13" x="202.58" y="350.49" width="131.61" height="43.06"/><line class="cls-13" x1="268.39" y1="169.4" x2="268.39" y2="211.39"/><polygon class="cls-14" points="260.25 201.82 268.39 209.97 276.52 201.82 276.52 208.74 268.39 216.87 260.25 208.74 260.25 201.82"/><line class="cls-13" x1="268.39" y1="193.14" x2="141.85" y2="193.14"/><polygon class="cls-14" points="151.41 185 143.27 193.14 151.41 201.27 144.5 201.27 136.37 193.14 144.5 185 151.41 185"/><line class="cls-13" x1="268.53" y1="324.74" x2="141.85" y2="324.74"/><polygon class="cls-14" points="151.41 316.6 143.27 324.74 151.41 332.88 144.5 332.88 136.37 324.74 144.5 316.6 151.41 316.6"/><line class="cls-13" x1="235.49" y1="24.41" x2="235.49" y2="69.99"/><polygon class="cls-14" points="227.35 60.43 235.49 68.57 243.62 60.43 243.62 67.33 235.49 75.47 227.35 67.33 227.35 60.43"/><line class="cls-13" x1="301.29" y1="24.41" x2="301.29" y2="69.99"/><polygon class="cls-14" points="293.15 60.43 301.29 68.57 309.43 60.43 309.43 67.33 301.29 75.47 293.15 67.33 293.15 60.43"/><line class="cls-13" x1="268.46" y1="300.83" x2="268.46" y2="343.16"/><polygon class="cls-14" points="260.32 333.6 268.46 341.74 276.6 333.6 276.6 340.51 268.46 348.64 260.32 340.51 260.32 333.6"/><line class="cls-13" x1="268.72" y1="828.12" x2="268.72" y2="872.38"/><polygon class="cls-14" points="260.58 862.82 268.72 870.96 276.86 862.82 276.86 869.73 268.72 877.87 260.58 869.73 260.58 862.82"/><line class="cls-13" x1="250.57" y1="518.19" x2="250.57" y2="572.45"/><polygon class="cls-14" points="242.43 562.89 250.57 571.03 258.71 562.89 258.71 569.8 250.57 577.93 242.43 569.8 242.43 562.89"/><line class="cls-13" x1="437.38" y1="548.06" x2="437.38" y2="572.45"/><polygon class="cls-14" points="429.24 562.89 437.38 571.03 445.51 562.89 445.51 569.8 437.38 577.93 429.24 569.8 429.24 562.89"/><line class="cls-13" x1="286.65" y1="766.72" x2="286.65" y2="796.59"/><line class="cls-13" x1="437.38" y1="736.84" x2="437.38" y2="766.72"/><line class="cls-13" x1="250.57" y1="634.95" x2="250.57" y2="677.32"/><polygon class="cls-14" points="242.43 667.76 250.57 675.9 258.71 667.76 258.71 674.67 250.57 682.81 242.43 674.67 242.43 667.76"/><line class="cls-13" x1="250.68" y1="739.8" x2="250.68" y2="790.3"/><line class="cls-13" x1="268.53" y1="393.55" x2="268.53" y2="488.28"/><line class="cls-15" x1="616.2" y1="468.45" x2="316.41" y2="468.45"/><line class="cls-15" x1="616.2" y1="250.44" x2="616.2" y2="468.45"/><line class="cls-15" x1="286.65" y1="518.19" x2="286.65" y2="548.06"/><line class="cls-15" x1="286.65" y1="548.06" x2="437.38" y2="548.06"/><line class="cls-15" x1="286.65" y1="766.72" x2="437.38" y2="766.72"/><text class="cls-16" transform="translate(220.54 108.45)">Read Phasor</text><text class="cls-16" transform="translate(398.66 353.82)">Wavetable</text><text class="cls-17" transform="translate(441.93 222.71)">Bank</text><text class="cls-18" transform="translate(39.9 199.47)">Phasor Out</text><text class="cls-17" transform="translate(222.54 15.46)">FM</text><text class="cls-17" transform="translate(281.31 15.46)">Sync</text><text class="cls-19" transform="translate(338.47 52.36)">Oscillator</text><polyline class="cls-10" points="295.89 147.3 295.89 119.68 240.88 147.3"/><text class="cls-16" transform="translate(241.57 244.9)">Shaper</text><text class="cls-16" transform="translate(241.53 377.42)">Reader</text><rect class="cls-20" x="184.8" y="579.94" width="131.61" height="53"/><text class="cls-16" transform="translate(214.9 611.87)">Enhancer</text><rect class="cls-21" x="184.8" y="684.81" width="131.61" height="53"/><text class="cls-16" transform="translate(198.11 716.74)">Lowpass Gate</text><line class="cls-13" x1="437.27" y1="632.94" x2="437.27" y2="677.32"/><polygon class="cls-14" points="429.13 667.76 437.26 675.9 445.4 667.76 445.4 674.67 437.26 682.8 429.13 674.67 429.13 667.76"/><rect class="cls-21" x="371.5" y="579.94" width="131.61" height="53"/><text class="cls-16" transform="translate(384.8 611.87)">Lowpass Gate</text><rect class="cls-20" x="371.5" y="684.81" width="131.61" height="53"/><text class="cls-16" transform="translate(401.59 716.74)">Enhancer</text><polyline class="cls-11" points="295.97 283.74 295.97 256.12 271.27 276.32 240.95 283.74"/><circle class="cls-22" cx="268.39" cy="193.14" r="4.62"/><circle class="cls-22" cx="250.57" cy="658.88" r="4.62"/><line class="cls-13" x1="364.12" y1="372.02" x2="341.5" y2="372.02"/><polygon class="cls-14" points="354.56 363.89 362.7 372.02 354.56 380.16 361.46 380.16 369.6 372.02 361.46 363.89 354.56 363.89"/><polygon class="cls-14" points="351.06 363.89 342.92 372.02 351.06 380.16 344.15 380.16 336.01 372.02 344.15 363.89 351.06 363.89"/><text class="cls-18" transform="translate(39.55 330.73)">Shaper Out</text><line class="cls-13" x1="268.53" y1="420.11" x2="141.85" y2="420.11"/><polygon class="cls-14" points="151.41 411.98 143.27 420.11 151.41 428.25 144.5 428.25 136.37 420.11 144.5 411.98 151.41 411.98"/><text class="cls-18" transform="translate(63.23 426.11)">Raw Out</text><line class="cls-13" x1="250.61" y1="658.88" x2="141.85" y2="658.88"/><polygon class="cls-14" points="151.41 650.74 143.27 658.88 151.41 667.01 144.5 667.01 136.37 658.88 144.5 650.74 151.41 650.74"/><line class="cls-13" x1="655.41" y1="217.82" x2="495.26" y2="217.82"/><polygon class="cls-14" points="504.82 209.69 496.68 217.82 504.82 225.96 497.91 225.96 489.77 217.82 497.91 209.69 504.82 209.69"/><text class="cls-18" transform="translate(19.95 664.87)">Enhancer Out</text><text class="cls-17" transform="translate(9.23 596.16)">Enhancer Type</text><line class="cls-13" x1="136.37" y1="590.16" x2="177.3" y2="590.16"/><polygon class="cls-14" points="167.74 598.3 175.88 590.16 167.74 582.03 174.65 582.03 182.79 590.16 174.65 598.3 167.74 598.3"/><text class="cls-17" transform="translate(2.54 497.62)">Swap Enhancer<tspan x="59.53" y="24">and LPG</tspan></text><line class="cls-13" x1="136.37" y1="503.23" x2="235.47" y2="503.23"/><polygon class="cls-14" points="225.91 511.37 234.05 503.23 225.91 495.1 232.82 495.1 240.95 503.23 232.82 511.37 225.91 511.37"/><text class="cls-17" transform="translate(2.54 805.92)">Swap Enhancer<tspan x="59.53" y="24">and LPG</tspan></text><line class="cls-13" x1="136.37" y1="811.54" x2="235.47" y2="811.54"/><polygon class="cls-14" points="225.91 819.68 234.05 811.54 225.91 803.4 232.82 803.4 240.95 811.54 232.82 819.68 225.91 819.68"/><text class="cls-17" transform="translate(28.84 248.65)">Shaper Type</text><text class="cls-17" transform="translate(-0.78 628.77)">Enhancer Depth</text><line class="cls-13" x1="136.37" y1="622.78" x2="177.3" y2="622.78"/><polygon class="cls-14" points="167.74 630.92 175.88 622.78 167.74 614.64 174.65 614.64 182.79 622.78 174.65 630.92 167.74 630.92"/><line class="cls-13" x1="136.37" y1="242.66" x2="195.15" y2="242.66"/><polygon class="cls-14" points="185.59 250.8 193.73 242.66 185.59 234.52 192.5 234.52 200.64 242.66 192.5 250.8 185.59 250.8"/><text class="cls-17" transform="translate(18.83 281.27)">Shaper Depth</text><line class="cls-13" x1="136.37" y1="275.27" x2="195.15" y2="275.27"/><polygon class="cls-14" points="185.59 283.41 193.73 275.27 185.59 267.14 192.5 267.14 200.64 275.27 192.5 283.41 185.59 283.41"/><text class="cls-17" transform="translate(90.93 112.23)">Pitch</text><line class="cls-13" x1="136.37" y1="106.23" x2="195.15" y2="106.23"/><polygon class="cls-14" points="185.59 114.37 193.73 106.23 185.59 98.09 192.5 98.09 200.64 106.23 192.5 114.37 185.59 114.37"/><text class="cls-17" transform="translate(18.3 144.84)">“End of Cycle”</text><line class="cls-13" x1="200.64" y1="138.85" x2="141.85" y2="138.85"/><polygon class="cls-14" points="151.41 130.71 143.27 138.85 151.41 146.99 144.5 146.99 136.37 138.85 144.5 130.71 151.41 130.71"/><line class="cls-13" x1="316.41" y1="468.45" x2="316.41" y2="401.04"/><polygon class="cls-14" points="324.55 410.61 316.41 402.46 308.27 410.61 308.27 403.7 316.41 395.56 324.55 403.7 324.55 410.61"/><circle class="cls-22" cx="268.46" cy="324.74" r="4.62"/><circle class="cls-22" cx="268.46" cy="420.11" r="4.62"/><circle class="cls-22" cx="268.46" cy="488.28" r="4.62"/><circle class="cls-22" cx="250.57" cy="518.19" r="4.62"/><circle class="cls-22" cx="286.65" cy="518.19" r="4.62"/><path class="cls-23" d="M392.66,396.09c7.66-22.72,12.9-29.6,16.58-29.32,7.65.58,8.47,32.2,14.36,32.31,3.71.07,4.54-20.47,8.84-20.64s6.3,20.37,13.26,20.94c5.55.45,8.44-18.07,14-17.95,5.71.12,7.41,19.4,14,19.74,3.23.17,6.21-4.3,8.1-7.78"/><line class="cls-13" x1="268.61" y1="488.28" x2="250.57" y2="518.19"/><path class="cls-24" d="M368,258.49c0-25.83,95.4,0,95.4-25.83"/><path class="cls-24" d="M558.79,258.49c0-25.83-95.4,0-95.4-25.83"/><circle class="cls-22" cx="268.72" cy="826.49" r="4.62"/><circle class="cls-22" cx="250.68" cy="796.58" r="4.62"/><circle class="cls-22" cx="250.68" cy="766.72" r="4.62"/><circle class="cls-22" cx="286.65" cy="796.58" r="4.62"/><line class="cls-13" x1="268.72" y1="826.49" x2="250.68" y2="796.58"/><text class="cls-17" transform="translate(95.43 701.04)">Gate</text><line class="cls-13" x1="136.37" y1="695.05" x2="177.3" y2="695.05"/><polygon class="cls-14" points="167.74 703.18 175.88 695.04 167.74 686.91 174.65 686.91 182.79 695.04 174.65 703.18 167.74 703.18"/><text class="cls-18" transform="translate(23.31 733.65)">Envelope Out</text><text class="cls-18" transform="translate(231.93 896.17)">Main Out</text><line class="cls-13" x1="184.8" y1="727.66" x2="141.85" y2="727.66"/><polygon class="cls-14" points="151.41 719.52 143.27 727.66 151.41 735.8 144.5 735.8 136.37 727.66 144.5 719.52 151.41 719.52"/><text class="cls-18" transform="translate(64.3 772.71)">LPG Out</text><line class="cls-13" x1="250.68" y1="766.72" x2="141.85" y2="766.72"/><polygon class="cls-14" points="151.41 758.58 143.27 766.72 151.41 774.85 144.5 774.85 136.37 766.72 144.5 758.58 151.41 758.58"/><text class="cls-17" transform="translate(659.37 223.82)">Bank Select</text><text class="cls-18" transform="translate(659.37 256.43)">Wave Select</text><line class="cls-13" x1="655.41" y1="250.44" x2="616.2" y2="250.44"/></svg>