<?xml version="1.0" encoding="utf-8"?>
<!-- Generator: Adobe Illustrator 24.1.2, SVG Export Plug-In . SVG Version: 6.00 Build 0)  -->
<svg version="1.1" id="Layer_1" xmlns="http://www.w3.org/2000/svg" xmlns:xlink="http://www.w3.org/1999/xlink" x="0px" y="0px"
	 viewBox="0 0 761.5 896.2" style="enable-background:new 0 0 761.5 896.2;" xml:space="preserve">
<style type="text/css">
	.st0{fill:none;stroke:#2C3266;stroke-width:4;stroke-miterlimit:10;}
	.st1{fill:none;stroke:#373F80;stroke-width:4;stroke-miterlimit:10;}
	.st2{fill:none;stroke:#434A99;stroke-width:4;stroke-miterlimit:10;}
	.st3{fill:none;stroke:#5963CC;stroke-width:4;stroke-miterlimit:10;}
	.st4{fill:none;stroke:#A6A8AB;stroke-width:4;stroke-miterlimit:10;}
	.st5{fill:none;stroke:#A6A8AB;stroke-width:4;stroke-miterlimit:10;stroke-dasharray:11.7853,11.7853;}
	.st6{fill:none;stroke:#A6A8AB;stroke-width:4;stroke-miterlimit:10;stroke-dasharray:11.7576,11.7576;}
	.st7{fill:none;stroke:#A6A8AB;stroke-width:4;stroke-miterlimit:10;stroke-dasharray:11.7856,11.7856;}
	.st8{fill:none;stroke:#A6A8AB;stroke-width:4;stroke-miterlimit:10;stroke-dasharray:11.3168,11.3168;}
	.st9{fill:none;stroke:#0084FF;stroke-width:4;stroke-miterlimit:10;}
	.st10{fill:none;stroke:#EC1848;stroke-width:4;stroke-miterlimit:10;}
	.st11{fill:none;stroke:#6F7CFF;stroke-width:4;stroke-miterlimit:10;}
	.st12{fill:none;stroke:#F1F1F2;stroke-width:4;stroke-miterlimit:10;}
	.st13{fill:#F1F1F2;}
	.st14{fill:none;stroke:#F1F1F2;stroke-width:4;stroke-linecap:square;stroke-miterlimit:10;}
	.st15{fill:#E6E7E8;}
	.st16{
        font-family:'AlteDIN1451Mittelschrift';
        src: url('../../css/din1451alt-altedin1451.woff');
    }
	.st17{font-size:18px;}
	.st18{font-size:20px;}
	.st19{fill:#FFFFFF;}
	.st20{
        font-family:'AlteDIN1451Mittelschriftgepraegt';
        src: url('../../css/din1451alt-altedin1451.woff');
    }
	.st21{font-size:22px;}
	.st22{fill:none;stroke:#29B473;stroke-width:4;stroke-miterlimit:10;}
	.st23{fill:none;stroke:#FFC50A;stroke-width:4;stroke-miterlimit:10;}
	.st24{fill:#F1F1F2;stroke:#F1F1F2;stroke-width:4;stroke-miterlimit:10;}
	.st25{fill:none;stroke:#6F7CFF;stroke-width:4;stroke-linecap:round;stroke-miterlimit:10;}
	.st26{fill:none;stroke:#F1F1F2;stroke-width:4;stroke-linecap:round;stroke-miterlimit:10;}
</style>
<polyline class="st0" points="427.2,287.2 427.2,273.2 558.8,273.2 558.8,359.3 544.8,359.3 "/>
<polyline class="st1" points="413.1,301.2 413.1,287.2 427.2,287.2 544.8,287.2 544.8,359.3 544.8,373.4 530.8,373.4 "/>
<polyline class="st2" points="399.2,315.1 399.2,301.2 427.2,301.2 530.8,301.2 530.8,359.3 530.8,387.3 516.9,387.3 "/>
<polyline class="st3" points="385.3,329 385.3,315.1 516.9,315.1 516.9,401.2 503,401.2 "/>
<g>
	<g>
		<line class="st4" x1="428.8" y1="46.7" x2="434.8" y2="46.7"/>
		<line class="st5" x1="446.6" y1="46.7" x2="582.1" y2="46.7"/>
		<polyline class="st4" points="588,46.7 594,46.7 594,52.7 		"/>
		<line class="st6" x1="594" y1="64.5" x2="594" y2="434.8"/>
		<polyline class="st4" points="594,440.7 594,446.7 588,446.7 		"/>
		<line class="st7" x1="576.2" y1="446.7" x2="181.4" y2="446.7"/>
		<polyline class="st4" points="175.5,446.7 169.5,446.7 169.5,440.7 		"/>
		<line class="st6" x1="169.5" y1="429" x2="169.5" y2="58.6"/>
		<polyline class="st4" points="169.5,52.7 169.5,46.7 175.5,46.7 		"/>
		<line class="st8" x1="186.8" y1="46.7" x2="317" y2="46.7"/>
		<line class="st4" x1="322.6" y1="46.7" x2="328.6" y2="46.7"/>
	</g>
</g>
<rect x="202.6" y="77.4" class="st9" width="131.6" height="90"/>
<rect x="202.7" y="218.8" class="st10" width="131.6" height="80"/>
<rect x="371.4" y="329" class="st11" width="131.6" height="86.1"/>
<rect x="202.6" y="350.5" class="st12" width="131.6" height="43.1"/>
<g>
	<g>
		<line class="st12" x1="268.4" y1="169.4" x2="268.4" y2="211.4"/>
		<g>
			<polygon class="st13" points="260.2,201.8 268.4,210 276.5,201.8 276.5,208.7 268.4,216.9 260.2,208.7 			"/>
		</g>
	</g>
</g>
<g>
	<g>
		<line class="st12" x1="268.4" y1="193.1" x2="141.9" y2="193.1"/>
		<g>
			<polygon class="st13" points="151.4,185 143.3,193.1 151.4,201.3 144.5,201.3 136.4,193.1 144.5,185 			"/>
		</g>
	</g>
</g>
<g>
	<g>
		<line class="st12" x1="268.5" y1="324.7" x2="141.9" y2="324.7"/>
		<g>
			<polygon class="st13" points="151.4,316.6 143.3,324.7 151.4,332.9 144.5,332.9 136.4,324.7 144.5,316.6 			"/>
		</g>
	</g>
</g>
<g>
	<g>
		<line class="st12" x1="235.5" y1="24.4" x2="235.5" y2="70"/>
		<g>
			<polygon class="st13" points="227.3,60.4 235.5,68.6 243.6,60.4 243.6,67.3 235.5,75.5 227.3,67.3 			"/>
		</g>
	</g>
</g>
<g>
	<g>
		<line class="st12" x1="301.3" y1="24.4" x2="301.3" y2="70"/>
		<g>
			<polygon class="st13" points="293.2,60.4 301.3,68.6 309.4,60.4 309.4,67.3 301.3,75.5 293.2,67.3 			"/>
		</g>
	</g>
</g>
<g>
	<g>
		<line class="st12" x1="268.5" y1="300.8" x2="268.5" y2="343.2"/>
		<g>
			<polygon class="st13" points="260.3,333.6 268.5,341.7 276.6,333.6 276.6,340.5 268.5,348.6 260.3,340.5 			"/>
		</g>
	</g>
</g>
<g>
	<g>
		<line class="st12" x1="268.7" y1="828.1" x2="268.7" y2="872.4"/>
		<g>
			<polygon class="st13" points="260.6,862.8 268.7,871 276.9,862.8 276.9,869.7 268.7,877.9 260.6,869.7 			"/>
		</g>
	</g>
</g>
<g>
	<g>
		<line class="st12" x1="250.6" y1="518.2" x2="250.6" y2="572.4"/>
		<g>
			<polygon class="st13" points="242.4,562.9 250.6,571 258.7,562.9 258.7,569.8 250.6,577.9 242.4,569.8 			"/>
		</g>
	</g>
</g>
<g>
	<g>
		<line class="st12" x1="437.4" y1="548.1" x2="437.4" y2="572.4"/>
		<g>
			<polygon class="st13" points="429.2,562.9 437.4,571 445.5,562.9 445.5,569.8 437.4,577.9 429.2,569.8 			"/>
		</g>
	</g>
</g>
<line class="st12" x1="286.6" y1="766.7" x2="286.6" y2="796.6"/>
<line class="st12" x1="437.4" y1="736.8" x2="437.4" y2="766.7"/>
<g>
	<g>
		<line class="st12" x1="250.6" y1="634.9" x2="250.6" y2="677.3"/>
		<g>
			<polygon class="st13" points="242.4,667.8 250.6,675.9 258.7,667.8 258.7,674.7 250.6,682.8 242.4,674.7 			"/>
		</g>
	</g>
</g>
<line class="st12" x1="250.7" y1="739.8" x2="250.7" y2="790.3"/>
<line class="st12" x1="268.5" y1="393.6" x2="268.5" y2="488.3"/>
<line class="st14" x1="616.2" y1="468.5" x2="316.4" y2="468.5"/>
<line class="st14" x1="616.2" y1="250.4" x2="616.2" y2="468.5"/>
<line class="st14" x1="286.6" y1="518.2" x2="286.6" y2="548.1"/>
<line class="st14" x1="286.6" y1="548.1" x2="437.4" y2="548.1"/>
<line class="st14" x1="286.6" y1="766.7" x2="437.4" y2="766.7"/>
<text transform="matrix(1 0 0 1 220.5382 108.4532)" class="st15 st16 st17">Read Phasor</text>
<text transform="matrix(1 0 0 1 398.6574 353.8237)" class="st15 st16 st17">Wavetable</text>
<text transform="matrix(1 0 0 1 441.9339 222.7115)" class="st15 st16 st18">Bank</text>
<text transform="matrix(1 0 0 1 39.8966 199.4689)" class="st19 st16 st18">Phasor Out</text>
<text transform="matrix(1 0 0 1 222.5411 15.4631)" class="st15 st16 st18">FM</text>
<text transform="matrix(1 0 0 1 281.3077 15.4631)" class="st15 st16 st18">Sync</text>
<text transform="matrix(1 0 0 1 338.4746 52.3556)" class="st15 st20 st21">Oscillator</text>
<polyline class="st9" points="295.9,147.3 295.9,119.7 240.9,147.3 "/>
<text transform="matrix(1 0 0 1 241.5739 244.8985)" class="st15 st16 st17">Shaper</text>
<text transform="matrix(1 0 0 1 241.5265 377.4204)" class="st15 st16 st17">Reader</text>
<rect x="184.8" y="579.9" class="st22" width="131.6" height="53"/>
<text transform="matrix(1 0 0 1 214.8969 611.8672)" class="st15 st16 st17">Enhancer</text>
<rect x="184.8" y="684.8" class="st23" width="131.6" height="53"/>
<text transform="matrix(1 0 0 1 198.1054 716.7402)" class="st15 st16 st17">Lowpass Gate</text>
<g>
	<g>
		<line class="st12" x1="437.3" y1="632.9" x2="437.3" y2="677.3"/>
		<g>
			<polygon class="st13" points="429.1,667.8 437.3,675.9 445.4,667.8 445.4,674.7 437.3,682.8 429.1,674.7 			"/>
		</g>
	</g>
</g>
<rect x="371.5" y="579.9" class="st23" width="131.6" height="53"/>
<text transform="matrix(1 0 0 1 384.7997 611.8672)" class="st15 st16 st17">Lowpass Gate</text>
<rect x="371.5" y="684.8" class="st22" width="131.6" height="53"/>
<text transform="matrix(1 0 0 1 401.5912 716.7402)" class="st15 st16 st17">Enhancer</text>
<polyline class="st10" points="296,283.7 296,256.1 271.3,276.3 241,283.7 "/>
<circle class="st24" cx="268.4" cy="193.1" r="4.6"/>
<circle class="st24" cx="250.6" cy="658.9" r="4.6"/>
<g>
	<g>
		<line class="st12" x1="364.1" y1="372" x2="341.5" y2="372"/>
		<g>
			<polygon class="st13" points="354.6,363.9 362.7,372 354.6,380.2 361.5,380.2 369.6,372 361.5,363.9 			"/>
		</g>
		<g>
			<polygon class="st13" points="351.1,363.9 342.9,372 351.1,380.2 344.1,380.2 336,372 344.1,363.9 			"/>
		</g>
	</g>
</g>
<text transform="matrix(1 0 0 1 39.5548 330.7301)" class="st19 st16 st18">Shaper Out</text>
<g>
	<g>
		<line class="st12" x1="268.5" y1="420.1" x2="141.9" y2="420.1"/>
		<g>
			<polygon class="st13" points="151.4,412 143.3,420.1 151.4,428.2 144.5,428.2 136.4,420.1 144.5,412 			"/>
		</g>
	</g>
</g>
<text transform="matrix(1 0 0 1 63.2267 426.1052)" class="st19 st16 st18">Raw Out</text>
<g>
	<g>
		<line class="st12" x1="250.6" y1="658.9" x2="141.9" y2="658.9"/>
		<g>
			<polygon class="st13" points="151.4,650.7 143.3,658.9 151.4,667 144.5,667 136.4,658.9 144.5,650.7 			"/>
		</g>
	</g>
</g>
<g>
	<g>
		<line class="st12" x1="655.4" y1="217.8" x2="495.3" y2="217.8"/>
		<g>
			<polygon class="st13" points="504.8,209.7 496.7,217.8 504.8,226 497.9,226 489.8,217.8 497.9,209.7 			"/>
		</g>
	</g>
</g>
<text transform="matrix(1 0 0 1 19.9455 664.869)" class="st19 st16 st18">Enhancer Out</text>
<text transform="matrix(1 0 0 1 9.2326 596.157)" class="st15 st16 st18">Enhancer Type</text>
<g>
	<g>
		<line class="st12" x1="136.4" y1="590.2" x2="177.3" y2="590.2"/>
		<g>
			<polygon class="st13" points="167.7,598.3 175.9,590.2 167.7,582 174.7,582 182.8,590.2 174.7,598.3 			"/>
		</g>
	</g>
</g>
<text transform="matrix(1 0 0 1 2.543 497.6152)"><tspan x="0" y="0" class="st15 st16 st18">Swap Enhancer</tspan><tspan x="59.5" y="24" class="st15 st16 st18">and LPG</tspan></text>
<g>
	<g>
		<line class="st12" x1="136.4" y1="503.2" x2="235.5" y2="503.2"/>
		<g>
			<polygon class="st13" points="225.9,511.4 234,503.2 225.9,495.1 232.8,495.1 241,503.2 232.8,511.4 			"/>
		</g>
	</g>
</g>
<text transform="matrix(1 0 0 1 2.543 805.921)"><tspan x="0" y="0" class="st15 st16 st18">Swap Enhancer</tspan><tspan x="59.5" y="24" class="st15 st16 st18">and LPG</tspan></text>
<g>
	<g>
		<line class="st12" x1="136.4" y1="811.5" x2="235.5" y2="811.5"/>
		<g>
			<polygon class="st13" points="225.9,819.7 234,811.5 225.9,803.4 232.8,803.4 241,811.5 232.8,819.7 			"/>
		</g>
	</g>
</g>
<text transform="matrix(1 0 0 1 28.8419 248.6523)" class="st15 st16 st18">Shaper Type</text>
<text transform="matrix(1 0 0 1 -0.7772 628.7719)" class="st15 st16 st18">Enhancer Depth</text>
<g>
	<g>
		<line class="st12" x1="136.4" y1="622.8" x2="177.3" y2="622.8"/>
		<g>
			<polygon class="st13" points="167.7,630.9 175.9,622.8 167.7,614.6 174.7,614.6 182.8,622.8 174.7,630.9 			"/>
		</g>
	</g>
</g>
<g>
	<g>
		<line class="st12" x1="136.4" y1="242.7" x2="195.1" y2="242.7"/>
		<g>
			<polygon class="st13" points="185.6,250.8 193.7,242.7 185.6,234.5 192.5,234.5 200.6,242.7 192.5,250.8 			"/>
		</g>
	</g>
</g>
<text transform="matrix(1 0 0 1 18.8322 281.2671)" class="st15 st16 st18">Shaper Depth</text>
<g>
	<g>
		<line class="st12" x1="136.4" y1="275.3" x2="195.1" y2="275.3"/>
		<g>
			<polygon class="st13" points="185.6,283.4 193.7,275.3 185.6,267.1 192.5,267.1 200.6,275.3 192.5,283.4 			"/>
		</g>
	</g>
</g>
<text transform="matrix(1 0 0 1 90.9318 112.2256)" class="st15 st16 st18">Pitch</text>
<g>
	<g>
		<line class="st12" x1="136.4" y1="106.2" x2="195.1" y2="106.2"/>
		<g>
			<polygon class="st13" points="185.6,114.4 193.7,106.2 185.6,98.1 192.5,98.1 200.6,106.2 192.5,114.4 			"/>
		</g>
	</g>
</g>
<text transform="matrix(1 0 0 1 18.2951 144.8405)" class="st15 st16 st18">“End of Cycle”</text>
<g>
	<g>
		<line class="st12" x1="200.6" y1="138.8" x2="141.9" y2="138.8"/>
		<g>
			<polygon class="st13" points="151.4,130.7 143.3,138.8 151.4,147 144.5,147 136.4,138.8 144.5,130.7 			"/>
		</g>
	</g>
</g>
<g>
	<g>
		<line class="st12" x1="316.4" y1="468.5" x2="316.4" y2="401"/>
		<g>
			<polygon class="st13" points="324.5,410.6 316.4,402.5 308.3,410.6 308.3,403.7 316.4,395.6 324.5,403.7 			"/>
		</g>
	</g>
</g>
<circle class="st24" cx="268.5" cy="324.7" r="4.6"/>
<circle class="st24" cx="268.5" cy="420.1" r="4.6"/>
<circle class="st24" cx="268.5" cy="488.3" r="4.6"/>
<circle class="st24" cx="250.6" cy="518.2" r="4.6"/>
<circle class="st24" cx="286.6" cy="518.2" r="4.6"/>
<path class="st25" d="M392.7,396.1c7.7-22.7,12.9-29.6,16.6-29.3c7.7,0.6,8.5,32.2,14.4,32.3c3.7,0.1,4.5-20.5,8.8-20.6
	c4.3-0.2,6.3,20.4,13.3,20.9c5.5,0.5,8.4-18.1,14-17.9c5.7,0.1,7.4,19.4,14,19.7c3.2,0.2,6.2-4.3,8.1-7.8"/>
<line class="st12" x1="268.6" y1="488.3" x2="250.6" y2="518.2"/>
<g>
	<path class="st26" d="M368,258.5c0-25.8,95.4,0,95.4-25.8"/>
	<path class="st26" d="M558.8,258.5c0-25.8-95.4,0-95.4-25.8"/>
</g>
<circle class="st24" cx="268.7" cy="826.5" r="4.6"/>
<circle class="st24" cx="250.7" cy="796.6" r="4.6"/>
<circle class="st24" cx="250.7" cy="766.7" r="4.6"/>
<circle class="st24" cx="286.6" cy="796.6" r="4.6"/>
<line class="st12" x1="268.7" y1="826.5" x2="250.7" y2="796.6"/>
<text transform="matrix(1 0 0 1 95.4337 701.0383)" class="st15 st16 st18">Gate</text>
<g>
	<g>
		<line class="st12" x1="136.4" y1="695" x2="177.3" y2="695"/>
		<g>
			<polygon class="st13" points="167.7,703.2 175.9,695 167.7,686.9 174.7,686.9 182.8,695 174.7,703.2 			"/>
		</g>
	</g>
</g>
<text transform="matrix(1 0 0 1 23.3145 733.6532)" class="st19 st16 st18">Envelope Out</text>
<text transform="matrix(1 0 0 1 231.9317 896.168)" class="st19 st16 st18">Main Out</text>
<g>
	<g>
		<line class="st12" x1="184.8" y1="727.7" x2="141.9" y2="727.7"/>
		<g>
			<polygon class="st13" points="151.4,719.5 143.3,727.7 151.4,735.8 144.5,735.8 136.4,727.7 144.5,719.5 			"/>
		</g>
	</g>
</g>
<text transform="matrix(1 0 0 1 64.3008 772.7088)" class="st19 st16 st18">LPG Out</text>
<g>
	<g>
		<line class="st12" x1="250.7" y1="766.7" x2="141.9" y2="766.7"/>
		<g>
			<polygon class="st13" points="151.4,758.6 143.3,766.7 151.4,774.9 144.5,774.9 136.4,766.7 144.5,758.6 			"/>
		</g>
	</g>
</g>
<text transform="matrix(1 0 0 1 659.3683 223.8159)" class="st15 st16 st18">Bank Select</text>
<text transform="matrix(1 0 0 1 659.3683 256.4307)" class="st19 st16 st18">Wave Select</text>
<line class="st12" x1="655.4" y1="250.4" x2="616.2" y2="250.4"/>
</svg>
