<?xml version="1.0" encoding="UTF-8" standalone="no"?>
<!-- Generator: Adobe Illustrator 23.0.2, SVG Export Plug-In . SVG Version: 6.00 Build 0)  -->

<svg
   xmlns:dc="http://purl.org/dc/elements/1.1/"
   xmlns:cc="http://creativecommons.org/ns#"
   xmlns:rdf="http://www.w3.org/1999/02/22-rdf-syntax-ns#"
   xmlns:svg="http://www.w3.org/2000/svg"
   xmlns="http://www.w3.org/2000/svg"
   xmlns:sodipodi="http://sodipodi.sourceforge.net/DTD/sodipodi-0.dtd"
   xmlns:inkscape="http://www.inkscape.org/namespaces/inkscape"
   version="1.1"
   id="Layer_1"
   x="0px"
   y="0px"
   viewBox="0 0 356.1 123"
   style="enable-background:new 0 0 356.1 123;"
   xml:space="preserve"
   sodipodi:docname="interzoneFlowChart.svg"
   inkscape:version="0.92.2 5c3e80d, 2017-08-06"><metadata
     id="metadata172"><rdf:RDF><cc:Work
         rdf:about=""><dc:format>image/svg+xml</dc:format><dc:type
           rdf:resource="http://purl.org/dc/dcmitype/StillImage" /></cc:Work></rdf:RDF></metadata><defs
     id="defs170" /><sodipodi:namedview
     pagecolor="#ffffff"
     bordercolor="#666666"
     borderopacity="1"
     objecttolerance="10"
     gridtolerance="10"
     guidetolerance="10"
     inkscape:pageopacity="0"
     inkscape:pageshadow="2"
     inkscape:window-width="1680"
     inkscape:window-height="1005"
     id="namedview168"
     showgrid="false"
     inkscape:zoom="3.6394271"
     inkscape:cx="255.66424"
     inkscape:cy="22.886648"
     inkscape:window-x="0"
     inkscape:window-y="1"
     inkscape:window-maximized="1"
     inkscape:current-layer="Layer_1" /><style
     type="text/css"
     id="style2">
	.st0{fill:#E6E6E6;}
	.st1{font-family:'AlteDIN1451Mittelschrift';}
	.st2{font-size:14px;}
	.st3{font-size:12px;}
	.st4{fill:none;stroke:#FF8500;stroke-width:2;stroke-miterlimit:10;}
	.st5{fill:#FF8500;}
	.st6{fill:none;stroke:#00B500;stroke-width:2;stroke-miterlimit:10;}
	.st7{fill:#00B500;}
	.st8{fill:none;stroke:#FF8500;stroke-width:2;stroke-linecap:round;stroke-miterlimit:10;}
	.st9{fill:none;stroke:#DB4061;stroke-width:2;stroke-miterlimit:10;}
	.st10{fill:#DB4061;}
	.st11{fill:none;stroke:#E6E6E6;stroke-width:2;stroke-miterlimit:10;}
	.st12{fill:none;stroke:#E6E6E6;stroke-linecap:round;stroke-miterlimit:10;}
	.st13{fill:none;stroke:#307DEE;stroke-width:2;stroke-miterlimit:10;}
	.st14{fill:#307DEE;}
	.st15{fill:none;stroke:#DB4061;stroke-width:2;stroke-linecap:round;stroke-miterlimit:10;}
	.st16{fill:none;stroke:#E6E6E6;stroke-width:2;stroke-linecap:round;stroke-miterlimit:10;}
</style><g
     id="XMLID_149_"><g
       aria-label="VCO"
       transform="matrix(1 0 0 1 23.4771 96.7011)"
       style="font-size:14px;font-family:AlteDIN1451Mittelschrift;fill:#e6e6e6"
       id="XMLID_150_"><path
         d="M 3.3154297,0.00683594 0.02734375,-9.953125 H 1.6201172 l 2.2695312,7.5810547 h 0.027344 L 6.1865234,-9.953125 h 1.5927735 l -3.288086,9.95996094 z"
         style="font-size:14px;font-family:AlteDIN1451Mittelschrift;fill:#e6e6e6"
         id="path1038" /><path
         d="m 13.979492,-2.7753906 h 1.592774 q -0.293946,1.3945312 -1.257813,2.13281248 -0.963867,0.73144531 -2.242187,0.73144531 -1.175782,0 -1.975586,-0.56054688 -0.7929691,-0.56738281 -1.1416019,-1.22363281 -0.2460937,-0.4375 -0.3417968,-0.9570313 -0.095703,-0.5195312 -0.095703,-2.3173828 0,-1.7978515 0.095703,-2.3173828 0.095703,-0.5195312 0.3417968,-0.9570312 0.3486328,-0.6494141 1.1416019,-1.2236328 0.799804,-0.5742186 1.975586,-0.5742186 1.415039,0 2.33789,0.8749998 0.929688,0.8681641 1.16211,2.078125 h -1.592774 q -0.18457,-0.5742187 -0.690429,-1.0048828 -0.499024,-0.4306641 -1.216797,-0.4306641 -0.533203,0 -0.922852,0.21875 -0.389648,0.21875 -0.615234,0.5058594 -0.293946,0.3828125 -0.403321,0.8408203 -0.102539,0.4580078 -0.102539,1.9892578 0,1.538086 0.102539,1.9960938 0.109375,0.4580078 0.403321,0.8271484 0.225586,0.3007813 0.615234,0.5195313 0.389649,0.211914 0.922852,0.211914 1.257812,0 1.907226,-1.3603515 z"
         style="font-size:14px;font-family:AlteDIN1451Mittelschrift;fill:#e6e6e6"
         id="path1040" /><path
         d="m 16.310547,-4.9697266 q 0,-1.7978515 0.0957,-2.3173828 0.0957,-0.5195312 0.341797,-0.9570312 0.348633,-0.6494141 1.141601,-1.2236328 0.799805,-0.5742186 1.975586,-0.5742186 1.168946,0 1.961914,0.5742186 0.799805,0.5742187 1.16211,1.2236328 0.239258,0.4375 0.334961,0.9570312 0.0957,0.5195313 0.0957,2.3173828 0,1.7978516 -0.0957,2.3173828 -0.0957,0.5195313 -0.334961,0.9570313 -0.362305,0.65625 -1.16211,1.22363281 -0.792968,0.56054688 -1.961914,0.56054688 -1.175781,0 -1.975586,-0.56054688 -0.792968,-0.56738281 -1.141601,-1.22363281 -0.246094,-0.4375 -0.341797,-0.9570313 -0.0957,-0.5195312 -0.0957,-2.3173828 z m 1.510742,0 q 0,1.538086 0.102539,1.9960938 0.109375,0.4580078 0.40332,0.8271484 0.225586,0.3007813 0.615235,0.5195313 0.389648,0.211914 0.922851,0.211914 0.533203,0 0.922852,-0.211914 0.389648,-0.21875 0.615234,-0.5195313 0.293946,-0.3691406 0.396485,-0.8271484 0.109375,-0.4580078 0.109375,-1.9960938 0,-1.53125 -0.109375,-1.9892578 -0.102539,-0.4580078 -0.396485,-0.8408203 -0.225586,-0.2871094 -0.615234,-0.5058594 -0.389649,-0.21875 -0.922852,-0.21875 -0.533203,0 -0.922851,0.21875 -0.389649,0.21875 -0.615235,0.5058594 -0.293945,0.3828125 -0.40332,0.8408203 -0.102539,0.4580078 -0.102539,1.9892578 z"
         style="font-size:14px;font-family:AlteDIN1451Mittelschrift;fill:#e6e6e6"
         id="path1042" /></g></g><g
     id="XMLID_1_"><text
       id="XMLID_2_"
       transform="matrix(1 0 0 1 46.752 114.7011)"
       class="st0 st1 st3">Sub</text>
</g><rect
     id="XMLID_148_"
     x="1.3"
     y="79.4"
     class="st4"
     width="68"
     height="42" /><g
     id="XMLID_8_"><g
       id="g15"><line
         class="st4"
         x1="69.6"
         y1="100.4"
         x2="93"
         y2="100.4"
         id="line9" /><g
         id="g13"><polygon
           class="st5"
           points="89,103.8 92.4,100.4 89,97 91.9,97 95.3,100.4 91.9,103.8    "
           id="polygon11" /></g></g></g><g
     id="XMLID_34_"><g
       id="g24"><line
         class="st4"
         x1="69.6"
         y1="111.4"
         x2="93"
         y2="111.4"
         id="line18" /><g
         id="g22"><polygon
           class="st5"
           points="89,114.8 92.4,111.4 89,108 91.9,108 95.3,111.4 91.9,114.8    "
           id="polygon20" /></g></g></g><g
     id="XMLID_5_"><g
       id="g33"><line
         class="st4"
         x1="69.6"
         y1="89.4"
         x2="93"
         y2="89.4"
         id="line27" /><g
         id="g31"><polygon
           class="st5"
           points="89,92.8 92.4,89.4 89,86 91.9,86 95.3,89.4 91.9,92.8    "
           id="polygon29" /></g></g></g><g
     id="XMLID_4_"><g
       id="g42"><line
         class="st6"
         x1="164.6"
         y1="100.4"
         x2="188"
         y2="100.4"
         id="line36" /><g
         id="g40"><polygon
           class="st7"
           points="184,103.8 187.4,100.4 184,97 186.9,97 190.3,100.4 186.9,103.8    "
           id="polygon38" /></g></g></g><line
     id="XMLID_13_"
     class="st4"
     x1="93.3"
     y1="33.6"
     x2="93.3"
     y2="58.4" /><line
     id="XMLID_15_"
     class="st8"
     x1="83.3"
     y1="33.6"
     x2="83.3"
     y2="58.4" /><g
     id="XMLID_21_"><g
       id="g53"><line
         class="st4"
         x1="220.3"
         y1="58.6"
         x2="220.3"
         y2="76"
         id="line47" /><g
         id="g51"><polygon
           class="st5"
           points="216.9,72 220.3,75.4 223.7,72 223.7,74.9 220.3,78.3 216.9,74.9    "
           id="polygon49" /></g></g></g><g
     id="XMLID_30_"><g
       id="g62"><line
         class="st9"
         x1="230.3"
         y1="33.4"
         x2="230.3"
         y2="76"
         id="line56" /><g
         id="g60"><polygon
           class="st10"
           points="226.9,72 230.3,75.4 233.7,72 233.7,74.9 230.3,78.3 226.9,74.9    "
           id="polygon58" /></g></g></g><g
     id="XMLID_42_"><g
       id="g71"><line
         class="st9"
         x1="320.3"
         y1="58.4"
         x2="320.3"
         y2="76"
         id="line65" /><g
         id="g69"><polygon
           class="st10"
           points="316.9,72 320.3,75.4 323.7,72 323.7,74.9 320.3,78.3 316.9,74.9    "
           id="polygon67" /></g></g></g><g
     id="XMLID_32_"><g
       id="g80"><line
         class="st9"
         x1="30.3"
         y1="48.4"
         x2="30.3"
         y2="76"
         id="line74" /><g
         id="g78"><polygon
           class="st10"
           points="26.9,72 30.3,75.4 33.7,72 33.7,74.9 30.3,78.3 26.9,74.9    "
           id="polygon76" /></g></g></g><g
     id="XMLID_19_"><g
       id="g89"><line
         class="st4"
         x1="40.3"
         y1="58.4"
         x2="40.3"
         y2="76"
         id="line83" /><g
         id="g87"><polygon
           class="st5"
           points="36.9,72 40.3,75.4 43.7,72 43.7,74.9 40.3,78.3 36.9,74.9    "
           id="polygon85" /></g></g></g><rect
     id="XMLID_210_"
     x="63.8"
     y="1.7"
     class="st4"
     width="49"
     height="31.4" /><rect
     id="XMLID_10_"
     x="129.7"
     y="1.7"
     class="st11"
     width="49"
     height="31.4" /><line
     class="st12"
     x1="6.3"
     y1="114.4"
     x2="20.3"
     y2="107.4"
     id="line94" /><line
     class="st12"
     x1="20.3"
     y1="114.4"
     x2="20.3"
     y2="107.4"
     id="line96" /><line
     class="st12"
     x1="28.3"
     y1="114.4"
     x2="28.3"
     y2="107.4"
     id="line98" /><line
     class="st12"
     x1="35.3"
     y1="107.4"
     x2="28.3"
     y2="107.4"
     id="line100" /><line
     class="st12"
     x1="35.3"
     y1="114.4"
     x2="35.3"
     y2="107.4"
     id="line102" /><line
     class="st12"
     x1="42.3"
     y1="107.4"
     x2="42.3"
     y2="114.4"
     id="line104" /><line
     class="st12"
     x1="35.3"
     y1="114.4"
     x2="42.3"
     y2="114.4"
     id="line106" /><g
     id="XMLID_6_"><g
       aria-label="Mixer"
       transform="matrix(1 0 0 1 113.9791 104.7011)"
       style="font-size:14px;font-family:AlteDIN1451Mittelschrift;fill:#e6e6e6"
       id="XMLID_7_"><path
         d="M 1.0595703,0.00683594 V -9.953125 h 1.428711 L 5.3457031,-3.4589844 8.1416016,-9.953125 H 9.5703125 V 0.00683594 H 8.0595703 V -6.2070312 h -0.027344 l -2.084961,4.7919921 H 4.6894531 L 2.6044922,-6.2070312 h -0.03418 v 6.21386714 z"
         style="font-size:14px;font-family:AlteDIN1451Mittelschrift;fill:#e6e6e6"
         id="path1027" /><path
         d="M 11.586914,0.00683594 V -7.0888672 h 1.428711 v 7.09570314 z m 0,-8.53125004 V -9.953125 h 1.428711 v 1.4287109 z"
         style="font-size:14px;font-family:AlteDIN1451Mittelschrift;fill:#e6e6e6"
         id="path1029" /><path
         d="M 16.542969,-3.6162109 14.21875,-7.0888672 h 1.708984 l 1.415039,2.296875 1.415039,-2.296875 h 1.708985 L 18.142578,-3.6162109 20.5625,0.00683594 H 18.853516 L 17.342773,-2.3515625 15.832031,0.00683594 h -1.708984 z"
         style="font-size:14px;font-family:AlteDIN1451Mittelschrift;fill:#e6e6e6"
         id="path1031" /><path
         d="m 27.097656,-3.0009766 h -4.416015 q 0,0.875 0.471679,1.3125 0.478516,0.4375 1.216797,0.4375 0.881836,0 1.558594,-0.6835937 l 1.032226,0.8818359 q -0.526367,0.6152344 -1.189453,0.88183596 -0.65625,0.25976563 -1.374023,0.25976563 -1.09375,0 -2.119141,-0.70410156 -1.02539,-0.71093753 -1.02539,-2.89843753 0,-2.071289 0.943359,-2.8642578 0.950195,-0.7929687 1.982422,-0.7929687 1.168945,0 2.043945,0.8134765 0.875,0.8066407 0.875,2.1806641 z m -4.416015,-1.1757812 h 2.99414 q -0.03418,-0.7998047 -0.451172,-1.2236328 -0.416992,-0.4238281 -1.045898,-0.4238281 -0.635742,0 -1.05957,0.4238281 -0.416993,0.4238281 -0.4375,1.2236328 z"
         style="font-size:14px;font-family:AlteDIN1451Mittelschrift;fill:#e6e6e6"
         id="path1033" /><path
         d="M 28.608398,0.00683594 V -7.0888672 h 1.428711 v 0.7587891 h 0.02734 q 0.663086,-0.8408203 1.845703,-0.8408203 0.779297,0 1.483399,0.546875 l -1.032227,1.2304687 q -0.464844,-0.3486328 -0.943359,-0.3486328 -0.526367,0 -0.957032,0.3554688 -0.423828,0.3486328 -0.423828,1.1279296 v 4.26562504 z"
         style="font-size:14px;font-family:AlteDIN1451Mittelschrift;fill:#e6e6e6"
         id="path1035" /></g></g><g
     id="XMLID_18_"><g
       aria-label="LFO"
       transform="matrix(1 0 0 1 76.6104 21.7011)"
       style="font-size:14px;font-family:AlteDIN1451Mittelschrift;fill:#e6e6e6"
       id="XMLID_23_"><path
         d="M 1.0595703,0.00683594 V -9.953125 h 1.5107422 v 8.5380859 h 4.8603516 v 1.42187504 z"
         style="font-size:14px;font-family:AlteDIN1451Mittelschrift;fill:#e6e6e6"
         id="path979" /><path
         d="M 8.8525391,0.00683594 V -9.953125 h 6.3710939 v 1.4287109 h -4.860352 v 2.9326172 h 4.142578 v 1.3466797 h -4.142578 v 4.25195314 z"
         style="font-size:14px;font-family:AlteDIN1451Mittelschrift;fill:#e6e6e6"
         id="path981" /><path
         d="m 16.037109,-4.9697266 q 0,-1.7978515 0.0957,-2.3173828 0.0957,-0.5195312 0.341797,-0.9570312 0.348633,-0.6494141 1.141602,-1.2236328 0.799805,-0.5742186 1.975586,-0.5742186 1.168945,0 1.961914,0.5742186 0.799805,0.5742187 1.162109,1.2236328 0.239258,0.4375 0.334961,0.9570312 0.0957,0.5195313 0.0957,2.3173828 0,1.7978516 -0.0957,2.3173828 -0.0957,0.5195313 -0.334961,0.9570313 -0.362304,0.65625 -1.162109,1.22363281 -0.792969,0.56054688 -1.961914,0.56054688 -1.175781,0 -1.975586,-0.56054688 -0.792969,-0.56738281 -1.141602,-1.22363281 -0.246093,-0.4375 -0.341797,-0.9570313 -0.0957,-0.5195312 -0.0957,-2.3173828 z m 1.510743,0 q 0,1.538086 0.102539,1.9960938 0.109375,0.4580078 0.40332,0.8271484 0.225586,0.3007813 0.615234,0.5195313 0.389649,0.211914 0.922852,0.211914 0.533203,0 0.922851,-0.211914 0.389649,-0.21875 0.615235,-0.5195313 0.293945,-0.3691406 0.396484,-0.8271484 0.109375,-0.4580078 0.109375,-1.9960938 0,-1.53125 -0.109375,-1.9892578 -0.102539,-0.4580078 -0.396484,-0.8408203 -0.225586,-0.2871094 -0.615235,-0.5058594 -0.389648,-0.21875 -0.922851,-0.21875 -0.533203,0 -0.922852,0.21875 -0.389648,0.21875 -0.615234,0.5058594 -0.293945,0.3828125 -0.40332,0.8408203 -0.102539,0.4580078 -0.102539,1.9892578 z"
         style="font-size:14px;font-family:AlteDIN1451Mittelschrift;fill:#e6e6e6"
         id="path983" /></g></g><g
     id="XMLID_14_"><g
       aria-label="Noise"
       transform="matrix(1 0 0 1 137.3501 21.7011)"
       style="font-size:14px;font-family:AlteDIN1451Mittelschrift;fill:#e6e6e6"
       id="XMLID_16_"><path
         d="M 1.0595703,0.00683594 V -9.953125 h 1.428711 l 4.5048828,7.0820312 h 0.027344 V -9.953125 H 8.5380859 V 0.00683594 H 7.109375 L 2.6044922,-7.0751953 h -0.03418 v 7.08203124 z"
         style="font-size:14px;font-family:AlteDIN1451Mittelschrift;fill:#e6e6e6"
         id="path986" /><path
         d="m 10.158203,-3.5478516 q 0,-1.1416015 0.177735,-1.7021484 0.177734,-0.5605469 0.58789,-1.0117187 0.293945,-0.3212891 0.806641,-0.6152344 0.519531,-0.2939453 1.353515,-0.2939453 0.820313,0 1.339844,0.2939453 0.519531,0.2939453 0.813477,0.6152344 0.410156,0.4511718 0.58789,1.0117187 0.177735,0.5605469 0.177735,1.7021484 0,1.1621094 -0.177735,1.7226563 -0.177734,0.5605469 -0.58789,1.01171874 -0.293946,0.328125 -0.813477,0.61523437 -0.519531,0.28710938 -1.339844,0.28710938 -0.833984,0 -1.353515,-0.28710938 -0.512696,-0.28710937 -0.806641,-0.61523437 -0.410156,-0.45117184 -0.58789,-1.01171874 -0.177735,-0.5605469 -0.177735,-1.7226563 z m 4.422852,0.013672 q 0,-0.7724609 -0.08203,-1.086914 -0.07519,-0.3144532 -0.266601,-0.6015625 -0.375977,-0.5195313 -1.148438,-0.5195313 -0.786132,0 -1.148437,0.5195313 -0.205078,0.2871093 -0.280274,0.6015625 -0.06836,0.3144531 -0.06836,1.0732421 0,0.7792969 0.06836,1.100586 0.0752,0.3144531 0.280274,0.5947265 0.362305,0.5195313 1.148437,0.5195313 0.772461,0 1.148438,-0.5195313 0.191406,-0.2802734 0.266601,-0.5947265 0.08203,-0.3144532 0.08203,-1.0869141 z"
         style="font-size:14px;font-family:AlteDIN1451Mittelschrift;fill:#e6e6e6"
         id="path988" /><path
         d="M 17.547852,0.00683594 V -7.0888672 h 1.42871 v 7.09570314 z m 0,-8.53125004 V -9.953125 h 1.42871 v 1.4287109 z"
         style="font-size:14px;font-family:AlteDIN1451Mittelschrift;fill:#e6e6e6"
         id="path990" /><path
         d="m 20.083984,-1.1757812 0.998047,-0.9843751 q 0.929688,0.9091797 2.235352,0.9091797 0.608398,0 1.004883,-0.2255859 0.396484,-0.2324219 0.396484,-0.6835938 0,-0.6220703 -0.868164,-0.6972656 l -1.257813,-0.1162109 q -0.881836,-0.068359 -1.46289,-0.5810547 -0.581055,-0.5126953 -0.581055,-1.4287109 0,-1.0800782 0.758789,-1.6337891 0.758789,-0.5537109 1.886719,-0.5537109 0.929687,0 1.592773,0.2666015 0.663086,0.2597657 1.189453,0.6972657 l -0.881835,1.0390625 q -0.423829,-0.2871094 -0.875,-0.4716797 -0.451172,-0.1845703 -1.025391,-0.1845703 -0.683594,0 -0.950195,0.2460937 -0.266602,0.2392578 -0.266602,0.6083984 0,0.2324219 0.198242,0.4306641 0.198242,0.1982422 0.738281,0.2392578 l 1.175782,0.082031 q 1.100586,0.075195 1.579101,0.6835937 0.478516,0.6015625 0.478516,1.4423828 0,1.0458985 -0.854492,1.61328127 -0.854492,0.56738282 -2.084961,0.56738282 -1.770508,0 -3.124024,-1.26464839 z"
         style="font-size:14px;font-family:AlteDIN1451Mittelschrift;fill:#e6e6e6"
         id="path992" /><path
         d="m 33.058594,-3.0009766 h -4.416016 q 0,0.875 0.47168,1.3125 0.478515,0.4375 1.216797,0.4375 0.881836,0 1.558593,-0.6835937 l 1.032227,0.8818359 q -0.526367,0.6152344 -1.189453,0.88183596 -0.65625,0.25976563 -1.374024,0.25976563 -1.09375,0 -2.11914,-0.70410156 -1.025391,-0.71093753 -1.025391,-2.89843753 0,-2.071289 0.94336,-2.8642578 0.950195,-0.7929687 1.982421,-0.7929687 1.168946,0 2.043946,0.8134765 0.875,0.8066407 0.875,2.1806641 z m -4.416016,-1.1757812 h 2.994141 q -0.03418,-0.7998047 -0.451172,-1.2236328 -0.416992,-0.4238281 -1.045899,-0.4238281 -0.635742,0 -1.05957,0.4238281 -0.416992,0.4238281 -0.4375,1.2236328 z"
         style="font-size:14px;font-family:AlteDIN1451Mittelschrift;fill:#e6e6e6"
         id="path994" /></g></g><line
     id="XMLID_28_"
     class="st9"
     x1="220.3"
     y1="33.6"
     x2="220.3"
     y2="48.4" /><line
     id="XMLID_24_"
     class="st9"
     x1="240.3"
     y1="33.6"
     x2="240.3"
     y2="58.6" /><rect
     id="XMLID_26_"
     x="195.8"
     y="1.7"
     class="st9"
     width="69"
     height="31.4" /><g
     id="XMLID_17_"><g
       aria-label="Envelope"
       transform="matrix(1 0 0 1 203.8721 21.7011)"
       style="font-size:14px;font-family:AlteDIN1451Mittelschrift;fill:#e6e6e6"
       id="XMLID_25_"><path
         d="M 1.0595703,0.00683594 V -9.953125 h 6.3710938 v 1.4287109 H 2.5703125 V -5.6875 h 4.1425781 v 1.3466797 H 2.5703125 v 2.9257812 h 4.8603516 v 1.42187504 z"
         style="font-size:14px;font-family:AlteDIN1451Mittelschrift;fill:#e6e6e6"
         id="path997" /><path
         d="M 8.7294922,0.00683594 V -7.0888672 h 1.4287108 v 0.7587891 h 0.02734 q 0.663086,-0.8408203 1.845703,-0.8408203 0.827148,0 1.592773,0.6289062 0.772461,0.6289063 0.772461,1.8320313 V 0.00683594 H 12.967773 V -4.2177734 q 0,-0.7177735 -0.40332,-1.1210938 -0.396484,-0.4033203 -0.991211,-0.4033203 -0.615234,0 -1.018554,0.4033203 -0.396485,0.4033203 -0.396485,1.1210938 v 4.22460934 z"
         style="font-size:14px;font-family:AlteDIN1451Mittelschrift;fill:#e6e6e6"
         id="path999" /><path
         d="M 17.841797,0.00683594 15.244141,-7.0888672 h 1.510742 l 1.661133,4.9697266 h 0.02734 l 1.667969,-4.9697266 h 1.510742 l -2.604492,7.09570314 z"
         style="font-size:14px;font-family:AlteDIN1451Mittelschrift;fill:#e6e6e6"
         id="path1001" /><path
         d="m 27.917969,-3.0009766 h -4.416016 q 0,0.875 0.47168,1.3125 0.478515,0.4375 1.216797,0.4375 0.881836,0 1.558593,-0.6835937 l 1.032227,0.8818359 q -0.526367,0.6152344 -1.189453,0.88183596 -0.65625,0.25976563 -1.374024,0.25976563 -1.09375,0 -2.11914,-0.70410156 -1.025391,-0.71093753 -1.025391,-2.89843753 0,-2.071289 0.94336,-2.8642578 0.950195,-0.7929687 1.982421,-0.7929687 1.168946,0 2.043946,0.8134765 0.875,0.8066407 0.875,2.1806641 z m -4.416016,-1.1757812 h 2.994141 q -0.03418,-0.7998047 -0.451172,-1.2236328 -0.416992,-0.4238281 -1.045899,-0.4238281 -0.635742,0 -1.05957,0.4238281 -0.416992,0.4238281 -0.4375,1.2236328 z"
         style="font-size:14px;font-family:AlteDIN1451Mittelschrift;fill:#e6e6e6"
         id="path1003" /><path
         d="M 29.428711,-1.7089844 V -9.953125 h 1.428711 v 8.1279297 q 0,0.4921875 0.533203,0.4921875 h 0.485352 V 0.00683594 H 31.24707 q -0.779297,0 -1.298828,-0.37597657 -0.519531,-0.38281249 -0.519531,-1.33984377 z"
         style="font-size:14px;font-family:AlteDIN1451Mittelschrift;fill:#e6e6e6"
         id="path1005" /><path
         d="m 32.689453,-3.5478516 q 0,-1.1416015 0.177734,-1.7021484 0.177735,-0.5605469 0.587891,-1.0117187 0.293945,-0.3212891 0.806641,-0.6152344 0.519531,-0.2939453 1.353515,-0.2939453 0.820313,0 1.339844,0.2939453 0.519531,0.2939453 0.813477,0.6152344 0.410156,0.4511718 0.58789,1.0117187 0.177735,0.5605469 0.177735,1.7021484 0,1.1621094 -0.177735,1.7226563 -0.177734,0.5605469 -0.58789,1.01171874 -0.293946,0.328125 -0.813477,0.61523437 -0.519531,0.28710938 -1.339844,0.28710938 -0.833984,0 -1.353515,-0.28710938 -0.512696,-0.28710937 -0.806641,-0.61523437 -0.410156,-0.45117184 -0.587891,-1.01171874 -0.177734,-0.5605469 -0.177734,-1.7226563 z m 4.422852,0.013672 q 0,-0.7724609 -0.08203,-1.086914 -0.0752,-0.3144532 -0.266601,-0.6015625 -0.375977,-0.5195313 -1.148438,-0.5195313 -0.786132,0 -1.148437,0.5195313 -0.205078,0.2871093 -0.280274,0.6015625 -0.06836,0.3144531 -0.06836,1.0732421 0,0.7792969 0.06836,1.100586 0.0752,0.3144531 0.280274,0.5947265 0.362305,0.5195313 1.148437,0.5195313 0.772461,0 1.148438,-0.5195313 0.191406,-0.2802734 0.266601,-0.5947265 0.08203,-0.3144532 0.08203,-1.0869141 z"
         style="font-size:14px;font-family:AlteDIN1451Mittelschrift;fill:#e6e6e6"
         id="path1007" /><path
         d="m 40.038086,2.8779297 v -9.9667969 h 1.428711 V -6.34375 q 0.745117,-0.8271484 1.832031,-0.8271484 0.649414,0 1.121094,0.2666015 0.47168,0.2597657 0.779297,0.65625 0.293945,0.3828125 0.396484,0.8955078 0.109375,0.5058594 0.109375,1.8183594 0,1.3056641 -0.109375,1.8183594 -0.102539,0.5126953 -0.396484,0.88867186 -0.307617,0.40332031 -0.779297,0.66308594 -0.47168,0.25292969 -1.121094,0.25292969 -0.553711,0 -0.998047,-0.22558594 -0.4375,-0.22558594 -0.833984,-0.60839844 V 2.8779297 Z m 2.830078,-4.2109375 q 1.004883,0 1.203125,-0.6904297 0.205078,-0.6904297 0.205078,-1.5107422 0,-0.8203125 -0.205078,-1.5107422 -0.198242,-0.6972656 -1.203125,-0.6972656 -1.004883,0 -1.203125,0.7177734 -0.198242,0.7177735 -0.198242,1.4902344 0,0.7724609 0.198242,1.4902344 0.198242,0.7109375 1.203125,0.7109375 z"
         style="font-size:14px;font-family:AlteDIN1451Mittelschrift;fill:#e6e6e6"
         id="path1009" /><path
         d="m 52.773437,-3.0009766 h -4.416015 q 0,0.875 0.47168,1.3125 0.478515,0.4375 1.216796,0.4375 0.881836,0 1.558594,-0.6835937 l 1.032227,0.8818359 q -0.526367,0.6152344 -1.189453,0.88183596 -0.65625,0.25976563 -1.374024,0.25976563 -1.09375,0 -2.11914,-0.70410156 -1.025391,-0.71093753 -1.025391,-2.89843753 0,-2.071289 0.943359,-2.8642578 0.950196,-0.7929687 1.982422,-0.7929687 1.168945,0 2.043945,0.8134765 0.875,0.8066407 0.875,2.1806641 z m -4.416015,-1.1757812 h 2.99414 q -0.03418,-0.7998047 -0.451171,-1.2236328 -0.416993,-0.4238281 -1.045899,-0.4238281 -0.635742,0 -1.05957,0.4238281 -0.416992,0.4238281 -0.4375,1.2236328 z"
         style="font-size:14px;font-family:AlteDIN1451Mittelschrift;fill:#e6e6e6"
         id="path1011" /></g></g><g
     id="XMLID_12_"><g
       aria-label="Filter"
       transform="matrix(1 0 0 1 210.1377 104.7011)"
       style="font-size:14px;font-family:AlteDIN1451Mittelschrift;fill:#e6e6e6"
       id="XMLID_20_"><path
         d="M 1.0595703,0.00683594 V -9.953125 h 6.3710938 v 1.4287109 H 2.5703125 v 2.9326172 h 4.1425781 v 1.3466797 H 2.5703125 v 4.25195314 z"
         style="font-size:14px;font-family:AlteDIN1451Mittelschrift;fill:#e6e6e6"
         id="path1014" /><path
         d="M 8.4970703,0.00683594 V -7.0888672 h 1.428711 v 7.09570314 z m 0,-8.53125004 V -9.953125 h 1.428711 v 1.4287109 z"
         style="font-size:14px;font-family:AlteDIN1451Mittelschrift;fill:#e6e6e6"
         id="path1016" /><path
         d="M 11.819336,-1.7089844 V -9.953125 h 1.428711 v 8.1279297 q 0,0.4921875 0.533203,0.4921875 h 0.485352 v 1.33984374 h -0.628907 q -0.779297,0 -1.298828,-0.37597657 -0.519531,-0.38281249 -0.519531,-1.33984377 z"
         style="font-size:14px;font-family:AlteDIN1451Mittelschrift;fill:#e6e6e6"
         id="path1018" /><path
         d="M 15.510742,0.01367188 V -5.9951172 h -0.710937 v -1.09375 h 0.710937 V -8.203125 l 1.428711,-1.5244141 v 2.6386719 h 1.039063 v 1.09375 h -1.039063 v 6.00878908 z"
         style="font-size:14px;font-family:AlteDIN1451Mittelschrift;fill:#e6e6e6"
         id="path1020" /><path
         d="m 24.773437,-3.0009766 h -4.416015 q 0,0.875 0.47168,1.3125 0.478515,0.4375 1.216796,0.4375 0.881836,0 1.558594,-0.6835937 l 1.032227,0.8818359 q -0.526367,0.6152344 -1.189453,0.88183596 -0.65625,0.25976563 -1.374024,0.25976563 -1.09375,0 -2.11914,-0.70410156 -1.025391,-0.71093753 -1.025391,-2.89843753 0,-2.071289 0.943359,-2.8642578 0.950196,-0.7929687 1.982422,-0.7929687 1.168945,0 2.043945,0.8134765 0.875,0.8066407 0.875,2.1806641 z m -4.416015,-1.1757812 h 2.99414 q -0.03418,-0.7998047 -0.451171,-1.2236328 -0.416993,-0.4238281 -1.045899,-0.4238281 -0.635742,0 -1.05957,0.4238281 -0.416992,0.4238281 -0.4375,1.2236328 z"
         style="font-size:14px;font-family:AlteDIN1451Mittelschrift;fill:#e6e6e6"
         id="path1022" /><path
         d="M 26.28418,0.00683594 V -7.0888672 h 1.428711 v 0.7587891 h 0.02734 q 0.663086,-0.8408203 1.845703,-0.8408203 0.779297,0 1.483399,0.546875 l -1.032227,1.2304687 q -0.464843,-0.3486328 -0.943359,-0.3486328 -0.526367,0 -0.957031,0.3554688 -0.423828,0.3486328 -0.423828,1.1279296 v 4.26562504 z"
         style="font-size:14px;font-family:AlteDIN1451Mittelschrift;fill:#e6e6e6"
         id="path1024" /></g></g><g
     id="XMLID_37_"><g
       aria-label="VCA"
       transform="matrix(1 0 0 1 308.3848 104.7011)"
       style="font-size:14px;font-family:AlteDIN1451Mittelschrift;fill:#e6e6e6"
       id="XMLID_38_"><path
         d="M 3.3154297,0.00683594 0.02734375,-9.953125 H 1.6201172 l 2.2695312,7.5810547 h 0.027344 L 6.1865234,-9.953125 h 1.5927735 l -3.288086,9.95996094 z"
         style="font-size:14px;font-family:AlteDIN1451Mittelschrift;fill:#e6e6e6"
         id="path1045" /><path
         d="m 13.979492,-2.7753906 h 1.592774 q -0.293946,1.3945312 -1.257813,2.13281248 -0.963867,0.73144531 -2.242187,0.73144531 -1.175782,0 -1.975586,-0.56054688 -0.7929691,-0.56738281 -1.1416019,-1.22363281 -0.2460937,-0.4375 -0.3417968,-0.9570313 -0.095703,-0.5195312 -0.095703,-2.3173828 0,-1.7978515 0.095703,-2.3173828 0.095703,-0.5195312 0.3417968,-0.9570312 0.3486328,-0.6494141 1.1416019,-1.2236328 0.799804,-0.5742186 1.975586,-0.5742186 1.415039,0 2.33789,0.8749998 0.929688,0.8681641 1.16211,2.078125 h -1.592774 q -0.18457,-0.5742187 -0.690429,-1.0048828 -0.499024,-0.4306641 -1.216797,-0.4306641 -0.533203,0 -0.922852,0.21875 -0.389648,0.21875 -0.615234,0.5058594 -0.293946,0.3828125 -0.403321,0.8408203 -0.102539,0.4580078 -0.102539,1.9892578 0,1.538086 0.102539,1.9960938 0.109375,0.4580078 0.403321,0.8271484 0.225586,0.3007813 0.615234,0.5195313 0.389649,0.211914 0.922852,0.211914 1.257812,0 1.907226,-1.3603515 z"
         style="font-size:14px;font-family:AlteDIN1451Mittelschrift;fill:#e6e6e6"
         id="path1047" /><path
         d="m 15.599609,0 3.636719,-9.9667969 h 1.244141 L 24.117187,0 H 22.53125 L 21.765625,-2.2490234 H 17.985352 L 17.192383,0 Z m 2.830078,-3.5820313 h 2.884766 Q 21,-4.5048828 20.81543,-5.0244141 20.637695,-5.5507812 20.500977,-5.9541016 20.371094,-6.3574219 20.234375,-6.7744141 20.097656,-7.1914062 19.87207,-7.9023437 q -0.239258,0.7382812 -0.382812,1.1826171 -0.143555,0.4375 -0.280274,0.8476563 -0.129882,0.4101562 -0.307617,0.9160156 -0.170898,0.5058594 -0.47168,1.3740234 z"
         style="font-size:14px;font-family:AlteDIN1451Mittelschrift;fill:#e6e6e6"
         id="path1049" /></g></g><rect
     id="XMLID_3_"
     x="96.3"
     y="79.4"
     class="st6"
     width="68"
     height="42" /><g
     id="XMLID_11_"><g
       id="g130"><line
         class="st13"
         x1="259.6"
         y1="100.4"
         x2="283"
         y2="100.4"
         id="line124" /><g
         id="g128"><polygon
           class="st14"
           points="279,103.8 282.4,100.4 279,97 281.9,97 285.3,100.4 281.9,103.8    "
           id="polygon126" /></g></g></g><rect
     id="XMLID_9_"
     x="191.3"
     y="79.4"
     class="st13"
     width="68"
     height="42" /><rect
     id="XMLID_22_"
     x="286.3"
     y="79.4"
     class="st11"
     width="68"
     height="42" /><line
     class="st8"
     x1="40.3"
     y1="58.4"
     x2="83.3"
     y2="58.4"
     id="line135" /><line
     class="st15"
     x1="240.3"
     y1="58.4"
     x2="320.3"
     y2="58.4"
     id="line137" /><g
     id="g147"><g
       id="g145"><line
         class="st11"
         x1="129.7"
         y1="17.4"
         x2="116.1"
         y2="17.4"
         id="line139" /><g
         id="g143"><polygon
           class="st0"
           points="120.1,14 116.7,17.4 120.1,20.8 117.2,20.8 113.8,17.4 117.2,14    "
           id="polygon141" /></g></g></g><g
     id="g157"><g
       id="g155"><line
         class="st11"
         x1="129.7"
         y1="68.5"
         x2="129.7"
         y2="76.1"
         id="line149" /><g
         id="g153"><polygon
           class="st0"
           points="126.3,72.2 129.7,75.6 133,72.2 133,75 129.7,78.4 126.3,75    "
           id="polygon151" /></g></g></g><line
     class="st16"
     x1="129.7"
     y1="68.5"
     x2="154.2"
     y2="68.5"
     id="line159" /><line
     class="st11"
     x1="154.2"
     y1="33.1"
     x2="154.2"
     y2="68.5"
     id="line161" /><line
     class="st8"
     x1="93.3"
     y1="58.4"
     x2="220.3"
     y2="58.4"
     id="line163" /><line
     class="st15"
     x1="30.3"
     y1="48.4"
     x2="220.3"
     y2="48.4"
     id="line165" /></svg>