<?xml version="1.0" encoding="utf-8"?>
<!-- Generator: Adobe Illustrator 19.0.0, SVG Export Plug-In . SVG Version: 6.00 Build 0)  -->
<svg version="1.1" id="Layer_1" xmlns="http://www.w3.org/2000/svg" xmlns:xlink="http://www.w3.org/1999/xlink" x="0px" y="0px"
	 width="522.8px" height="336.5px" viewBox="0 0 522.8 336.5" style="enable-background:new 0 0 522.8 336.5;" xml:space="preserve"
	>
<style type="text/css">
    @font-face {
        font-family: 'alteDin';
        src: url('css/din1451alt-altedin1451.eot'); /* IE9 Compat Modes */
        src: url('css/din1451alt-altedin1451.eot?#iefix') format('embedded-opentype'), /* IE6-IE8 */
             url('css/din1451alt-altedin1451.woff2') format('woff2'), /* Super Modern Browsers */
             url('css/din1451alt-altedin1451.woff') format('woff'), /* Pretty Modern Browsers */
             url('css/din1451alt-altedin1451.ttf')  format('truetype'), /* Safari, Android, iOS */
             url('css/din1451alt-altedin1451.svg#svgFontName') format('svg'); /* Legacy iOS */
    }

	.st0{fill:#E6E6E6;}
	.st1{font-family:'alteDin';}
	.st2{font-size:10px;}
	.st3{fill:none;stroke:#E6E6E6;stroke-width:2;stroke-miterlimit:10;}
	.st4{fill:none;stroke:#DB4061;stroke-width:2;stroke-miterlimit:10;}
	.st5{fill:#DB4061;}
	.st6{fill:none;stroke:#E6E6E6;stroke-width:2;stroke-linecap:round;stroke-miterlimit:10;}
	.st7{fill:none;stroke:#19A1A8;stroke-width:2;stroke-miterlimit:10;}
	.st8{fill:none;stroke:#E6E6E6;stroke-width:2;stroke-linecap:square;stroke-miterlimit:10;}
	.st9{fill:none;stroke:#307DEE;stroke-width:2;stroke-miterlimit:10;}
	.st10{fill:none;stroke:#E6E6E6;stroke-width:2;stroke-miterlimit:10;stroke-dasharray:6.0872,6.0872;}
	.st11{fill:none;stroke:#E6E6E6;stroke-width:2;stroke-miterlimit:10;stroke-dasharray:5.9286,5.9286;}
	.st12{fill:none;stroke:#E6E6E6;stroke-width:2;stroke-miterlimit:10;stroke-dasharray:6.0625,6.0625;}
	.st13{fill:none;stroke:#E6E6E6;stroke-width:2;stroke-miterlimit:10;stroke-dasharray:5.9828,5.9828;}
	.st14{font-size:14px;}
</style>
<g id="XMLID_149_">
	<text id="XMLID_150_" transform="matrix(1 0 0 1 255.4584 39.5727)"><tspan x="0" y="0" class="st0 st1 st2">All-pass</tspan><tspan x="6.5" y="12" class="st0 st1 st2">Filter</tspan></text>
</g>
<rect id="XMLID_148_" x="248.5" y="26.4" class="st3" width="49" height="31.4"/>
<g id="XMLID_16_">
	<text id="XMLID_17_" transform="matrix(1 0 0 1 320.4428 39.5727)"><tspan x="0" y="0" class="st0 st1 st2">All-pass</tspan><tspan x="6.5" y="12" class="st0 st1 st2">Filter</tspan></text>
</g>
<rect id="XMLID_15_" x="313.5" y="26.4" class="st3" width="49" height="31.4"/>
<g id="XMLID_14_">
	<g id="XMLID_332_">
		<line id="XMLID_335_" class="st3" x1="297.5" y1="42.1" x2="310.2" y2="42.1"/>
		<g id="XMLID_333_">
			<polygon id="XMLID_334_" class="st0" points="306.2,45.5 309.6,42.1 306.2,38.7 309.1,38.7 312.5,42.1 309.1,45.5 			"/>
		</g>
	</g>
</g>
<g id="XMLID_54_">
	<text id="XMLID_55_" transform="matrix(1 0 0 1 95.474 176.7791)"><tspan x="0" y="0" class="st0 st1 st2">All-pass</tspan><tspan x="6.5" y="12" class="st0 st1 st2">Filter</tspan></text>
</g>
<g id="XMLID_47_">
	<g id="XMLID_317_">
		<line id="XMLID_320_" class="st3" x1="72.5" y1="179.3" x2="85.2" y2="179.3"/>
		<g id="XMLID_318_">
			<polygon id="XMLID_319_" class="st0" points="81.2,182.7 84.6,179.3 81.2,175.9 84.1,175.9 87.5,179.3 84.1,182.7 			"/>
		</g>
	</g>
</g>
<g id="XMLID_63_">
	<text id="XMLID_64_" transform="matrix(1 0 0 1 166.4324 182.0901)" class="st0 st1 st2">Delay</text>
</g>
<g id="XMLID_56_">
	<g id="XMLID_312_">
		<line id="XMLID_315_" class="st3" x1="137.5" y1="179.3" x2="150.2" y2="179.3"/>
		<g id="XMLID_313_">
			<polygon id="XMLID_314_" class="st0" points="146.2,182.7 149.6,179.3 146.2,175.9 149.1,175.9 152.5,179.3 149.1,182.7 			"/>
		</g>
	</g>
</g>
<g id="XMLID_213_">
	<g id="XMLID_273_">
		<line id="XMLID_276_" class="st4" x1="113" y1="147.6" x2="113" y2="160.3"/>
		<g id="XMLID_274_">
			<polygon id="XMLID_275_" class="st5" points="109.6,156.3 113,159.7 116.4,156.3 116.4,159.1 113,162.5 109.6,159.1 			"/>
		</g>
	</g>
</g>
<g id="XMLID_105_">
	<text id="XMLID_106_" transform="matrix(1 0 0 1 355.4272 176.7791)"><tspan x="0" y="0" class="st0 st1 st2">All-pass</tspan><tspan x="6.5" y="12" class="st0 st1 st2">Filter</tspan></text>
</g>
<g id="XMLID_98_">
	<g id="XMLID_307_">
		<line id="XMLID_310_" class="st3" x1="332.5" y1="179.3" x2="345.2" y2="179.3"/>
		<g id="XMLID_308_">
			<polygon id="XMLID_309_" class="st0" points="341.2,182.7 344.6,179.3 341.2,175.9 344.1,175.9 347.4,179.3 344.1,182.7 			"/>
		</g>
	</g>
</g>
<g id="XMLID_60_">
	<text id="XMLID_97_" transform="matrix(1 0 0 1 426.3855 182.0901)" class="st0 st1 st2">Delay</text>
</g>
<g id="XMLID_203_">
	<text id="XMLID_204_" transform="matrix(1 0 0 1 476.2603 162.2875)" class="st0 st1 st2">Decay</text>
</g>
<g id="XMLID_208_">
	<text id="XMLID_209_" transform="matrix(1 0 0 1 476.2603 287.7875)" class="st0 st1 st2">Decay</text>
</g>
<g id="XMLID_49_">
	<g id="XMLID_292_">
		<line id="XMLID_305_" class="st3" x1="397.4" y1="179.3" x2="410.1" y2="179.3"/>
		<g id="XMLID_293_">
			<polygon id="XMLID_304_" class="st0" points="406.2,182.7 409.6,179.3 406.2,175.9 409,175.9 412.4,179.3 409,182.7 			"/>
		</g>
	</g>
</g>
<g id="XMLID_108_">
	<g id="XMLID_260_">
		<line id="XMLID_263_" class="st3" x1="462.4" y1="179.3" x2="475.1" y2="179.3"/>
		<g id="XMLID_261_">
			<polygon id="XMLID_262_" class="st0" points="471.1,182.7 474.5,179.3 471.1,175.9 474,175.9 477.4,179.3 474,182.7 			"/>
		</g>
	</g>
</g>
<g id="XMLID_72_">
	<text id="XMLID_73_" transform="matrix(1 0 0 1 226.0291 175.778)" class="st0 st1 st2">Low Cut</text>
</g>
<g id="XMLID_65_">
	<g id="XMLID_255_">
		<line id="XMLID_258_" class="st3" x1="202.5" y1="179.3" x2="215.2" y2="179.3"/>
		<g id="XMLID_256_">
			<polygon id="XMLID_257_" class="st0" points="211.2,182.7 214.6,179.3 211.2,175.9 214.1,175.9 217.5,179.3 214.1,182.7 			"/>
		</g>
	</g>
</g>
<g id="XMLID_26_">
	<text id="XMLID_32_" transform="matrix(1 0 0 1 385.4272 39.5727)"><tspan x="0" y="0" class="st0 st1 st2">All-pass</tspan><tspan x="6.5" y="12" class="st0 st1 st2">Filter</tspan></text>
</g>
<rect id="XMLID_25_" x="378.5" y="26.4" class="st3" width="49" height="31.4"/>
<g id="XMLID_19_">
	<g id="XMLID_250_">
		<line id="XMLID_253_" class="st3" x1="362.5" y1="42.1" x2="375.2" y2="42.1"/>
		<g id="XMLID_251_">
			<polygon id="XMLID_252_" class="st0" points="371.2,45.5 374.6,42.1 371.2,38.7 374.1,38.7 377.4,42.1 374.1,45.5 			"/>
		</g>
	</g>
</g>
<g id="XMLID_40_">
	<text id="XMLID_41_" transform="matrix(1 0 0 1 450.4115 39.5727)"><tspan x="0" y="0" class="st0 st1 st2">All-pass</tspan><tspan x="6.5" y="12" class="st0 st1 st2">Filter</tspan></text>
</g>
<rect id="XMLID_39_" x="443.4" y="26.4" class="st3" width="49" height="31.4"/>
<g id="XMLID_33_">
	<g id="XMLID_244_">
		<line id="XMLID_247_" class="st3" x1="427.4" y1="42.1" x2="440.1" y2="42.1"/>
		<g id="XMLID_245_">
			<polygon id="XMLID_246_" class="st0" points="436.2,45.5 439.6,42.1 436.2,38.7 439,38.7 442.4,42.1 439,45.5 			"/>
		</g>
	</g>
</g>
<g id="XMLID_136_">
	<circle id="XMLID_140_" class="st3" cx="63" cy="179.3" r="9.5"/>
	<g id="XMLID_137_">
		<line id="XMLID_139_" class="st3" x1="63" y1="174.4" x2="63" y2="184.2"/>
		<line id="XMLID_138_" class="st3" x1="67.9" y1="179.3" x2="58.1" y2="179.3"/>
	</g>
</g>
<g id="XMLID_42_">
	<circle id="XMLID_46_" class="st3" cx="63" cy="263.1" r="9.5"/>
	<g id="XMLID_43_">
		<line id="XMLID_45_" class="st3" x1="63" y1="258.2" x2="63" y2="268"/>
		<line id="XMLID_44_" class="st3" x1="67.9" y1="263.1" x2="58.1" y2="263.1"/>
	</g>
</g>
<g id="XMLID_87_">
	<line id="XMLID_18_" class="st6" x1="241.2" y1="182.3" x2="255.2" y2="182.3"/>
	<line id="XMLID_75_" class="st6" x1="231.2" y1="190.8" x2="241.1" y2="182.3"/>
</g>
<g id="XMLID_85_">
	<text id="XMLID_86_" transform="matrix(1 0 0 1 290.2014 175.778)" class="st0 st1 st2">High Cut</text>
</g>
<g id="XMLID_78_">
	<g id="XMLID_194_">
		<line id="XMLID_201_" class="st3" x1="267.5" y1="179.3" x2="280.2" y2="179.3"/>
		<g id="XMLID_198_">
			<polygon id="XMLID_200_" class="st0" points="276.2,182.7 279.6,179.3 276.2,175.9 279.1,175.9 282.5,179.3 279.1,182.7 			"/>
		</g>
	</g>
</g>
<g id="XMLID_74_">
	<line id="XMLID_77_" class="st6" x1="310.2" y1="182.3" x2="296.2" y2="182.3"/>
	<line id="XMLID_76_" class="st6" x1="320.2" y1="190.8" x2="310.3" y2="182.3"/>
</g>
<g id="XMLID_238_">
	<text id="XMLID_239_" transform="matrix(1 0 0 1 46.352 45.0903)" class="st0 st1 st2">Pre-Delay</text>
</g>
<rect id="XMLID_237_" x="40.2" y="26.6" class="st3" width="54.3" height="31.4"/>
<g id="XMLID_231_">
	<g id="XMLID_185_">
		<line id="XMLID_192_" class="st3" x1="224.5" y1="42.3" x2="245.2" y2="42.3"/>
		<g id="XMLID_190_">
			<polygon id="XMLID_191_" class="st0" points="241.2,45.7 244.6,42.3 241.2,38.9 244.1,38.9 247.4,42.3 244.1,45.7 			"/>
		</g>
	</g>
</g>
<g id="XMLID_229_">
	<text id="XMLID_230_" transform="matrix(1 0 0 1 118.0291 38.778)" class="st0 st1 st2">Low Cut</text>
</g>
<rect id="XMLID_228_" x="110.5" y="26.6" class="st7" width="49" height="31.4"/>
<g id="XMLID_222_">
	<g id="XMLID_176_">
		<line id="XMLID_183_" class="st3" x1="94.5" y1="42.3" x2="107.2" y2="42.3"/>
		<g id="XMLID_181_">
			<polygon id="XMLID_182_" class="st0" points="103.2,45.7 106.6,42.3 103.2,38.9 106.1,38.9 109.5,42.3 106.1,45.7 			"/>
		</g>
	</g>
</g>
<g id="XMLID_224_">
	<g id="XMLID_283_">
		<line id="XMLID_286_" class="st3" x1="24.2" y1="42.3" x2="36.9" y2="42.3"/>
		<g id="XMLID_284_">
			<polygon id="XMLID_285_" class="st0" points="33,45.7 36.4,42.3 33,38.9 35.8,38.9 39.2,42.3 35.8,45.7 			"/>
		</g>
	</g>
</g>
<g id="XMLID_219_">
	<line id="XMLID_221_" class="st6" x1="133.2" y1="45.3" x2="147.2" y2="45.3"/>
	<line id="XMLID_220_" class="st6" x1="123.2" y1="53.8" x2="133.1" y2="45.3"/>
</g>
<g id="XMLID_217_">
	<text id="XMLID_218_" transform="matrix(1 0 0 1 182.2014 38.778)" class="st0 st1 st2">High Cut</text>
</g>
<g id="XMLID_225_">
	<text id="XMLID_226_" transform="matrix(1 0 0 1 8.106232e-05 45.0904)" class="st0 st1 st2">Input</text>
</g>
<rect id="XMLID_216_" x="175.5" y="26.6" class="st7" width="49" height="31.4"/>
<g id="XMLID_70_">
	<g id="XMLID_167_">
		<line id="XMLID_174_" class="st3" x1="159.5" y1="42.3" x2="172.2" y2="42.3"/>
		<g id="XMLID_172_">
			<polygon id="XMLID_173_" class="st0" points="168.2,45.7 171.6,42.3 168.2,38.9 171.1,38.9 174.5,42.3 171.1,45.7 			"/>
		</g>
	</g>
</g>
<g id="XMLID_67_">
	<line id="XMLID_69_" class="st6" x1="202.2" y1="45.3" x2="188.2" y2="45.3"/>
	<line id="XMLID_68_" class="st6" x1="212.2" y1="53.8" x2="202.3" y2="45.3"/>
</g>
<g id="XMLID_196_">
	<text id="XMLID_197_" transform="matrix(1 0 0 1 95.474 260.7791)"><tspan x="0" y="0" class="st0 st1 st2">All-pass</tspan><tspan x="6.5" y="12" class="st0 st1 st2">Filter</tspan></text>
</g>
<g id="XMLID_189_">
	<g id="XMLID_161_">
		<line id="XMLID_165_" class="st3" x1="72.5" y1="263.3" x2="85.2" y2="263.3"/>
		<g id="XMLID_163_">
			<polygon id="XMLID_164_" class="st0" points="81.2,266.7 84.6,263.3 81.2,259.9 84.1,259.9 87.5,263.3 84.1,266.7 			"/>
		</g>
	</g>
</g>
<g id="XMLID_249_">
	<g id="XMLID_152_">
		<line id="XMLID_159_" class="st3" x1="37.5" y1="179.3" x2="50.2" y2="179.3"/>
		<g id="XMLID_157_">
			<polygon id="XMLID_158_" class="st0" points="46.2,182.7 49.6,179.3 46.2,175.9 49.1,175.9 52.5,179.3 49.1,182.7 			"/>
		</g>
	</g>
</g>
<g id="XMLID_243_">
	<g id="XMLID_132_">
		<line id="XMLID_147_" class="st3" x1="37.5" y1="263.3" x2="50.2" y2="263.3"/>
		<g id="XMLID_145_">
			<polygon id="XMLID_146_" class="st0" points="46.2,266.7 49.6,263.3 46.2,259.9 49.1,259.9 52.5,263.3 49.1,266.7 			"/>
		</g>
	</g>
</g>
<g id="XMLID_187_">
	<text id="XMLID_188_" transform="matrix(1 0 0 1 166.4324 266.0901)" class="st0 st1 st2">Delay</text>
</g>
<g id="XMLID_180_">
	<g id="XMLID_127_">
		<line id="XMLID_130_" class="st3" x1="137.5" y1="263.3" x2="150.2" y2="263.3"/>
		<g id="XMLID_128_">
			<polygon id="XMLID_129_" class="st0" points="146.2,266.7 149.6,263.3 146.2,259.9 149.1,259.9 152.5,263.3 149.1,266.7 			"/>
		</g>
	</g>
</g>
<g id="XMLID_178_">
	<text id="XMLID_179_" transform="matrix(1 0 0 1 355.4272 260.7791)"><tspan x="0" y="0" class="st0 st1 st2">All-pass</tspan><tspan x="6.5" y="12" class="st0 st1 st2">Filter</tspan></text>
</g>
<g id="XMLID_171_">
	<g id="XMLID_117_">
		<line id="XMLID_125_" class="st3" x1="332.5" y1="263.3" x2="345.2" y2="263.3"/>
		<g id="XMLID_123_">
			<polygon id="XMLID_124_" class="st0" points="341.2,266.7 344.6,263.3 341.2,259.9 344.1,259.9 347.4,263.3 344.1,266.7 			"/>
		</g>
	</g>
</g>
<g id="XMLID_169_">
	<text id="XMLID_170_" transform="matrix(1 0 0 1 426.3855 266.0901)" class="st0 st1 st2">Delay</text>
</g>
<g id="XMLID_162_">
	<g id="XMLID_109_">
		<line id="XMLID_112_" class="st3" x1="397.4" y1="263.3" x2="410.1" y2="263.3"/>
		<g id="XMLID_110_">
			<polygon id="XMLID_111_" class="st0" points="406.2,266.7 409.6,263.3 406.2,259.9 409,259.9 412.4,263.3 409,266.7 			"/>
		</g>
	</g>
</g>
<g id="XMLID_156_">
	<g id="XMLID_99_">
		<line id="XMLID_102_" class="st3" x1="462.4" y1="263.3" x2="475.1" y2="263.3"/>
		<g id="XMLID_100_">
			<polygon id="XMLID_101_" class="st0" points="471.1,266.7 474.5,263.3 471.1,259.9 474,259.9 477.4,263.3 474,266.7 			"/>
		</g>
	</g>
</g>
<g id="XMLID_154_">
	<text id="XMLID_155_" transform="matrix(1 0 0 1 226.0291 259.778)" class="st0 st1 st2">Low Cut</text>
</g>
<g id="XMLID_144_">
	<g id="XMLID_92_">
		<line id="XMLID_95_" class="st3" x1="202.5" y1="263.3" x2="215.2" y2="263.3"/>
		<g id="XMLID_93_">
			<polygon id="XMLID_94_" class="st0" points="211.2,266.7 214.6,263.3 211.2,259.9 214.1,259.9 217.5,263.3 214.1,266.7 			"/>
		</g>
	</g>
</g>
<g id="XMLID_141_">
	<line id="XMLID_143_" class="st6" x1="241.2" y1="266.3" x2="255.2" y2="266.3"/>
	<line id="XMLID_142_" class="st6" x1="231.2" y1="274.8" x2="241.1" y2="266.3"/>
</g>
<g id="XMLID_134_">
	<text id="XMLID_135_" transform="matrix(1 0 0 1 290.2014 259.778)" class="st0 st1 st2">High Cut</text>
</g>
<g id="XMLID_122_">
	<g id="XMLID_83_">
		<line id="XMLID_90_" class="st3" x1="267.5" y1="263.3" x2="280.2" y2="263.3"/>
		<g id="XMLID_88_">
			<polygon id="XMLID_89_" class="st0" points="276.2,266.7 279.6,263.3 276.2,259.9 279.1,259.9 282.5,263.3 279.1,266.7 			"/>
		</g>
	</g>
</g>
<g id="XMLID_119_">
	<line id="XMLID_121_" class="st6" x1="310.2" y1="266.3" x2="296.2" y2="266.3"/>
	<line id="XMLID_120_" class="st6" x1="320.2" y1="274.8" x2="310.3" y2="266.3"/>
</g>
<line id="XMLID_48_" class="st3" x1="499.2" y1="179.3" x2="507.2" y2="179.3"/>
<line id="XMLID_114_" class="st8" x1="507.2" y1="179.3" x2="507.2" y2="210.3"/>
<line id="XMLID_115_" class="st6" x1="507.2" y1="210.3" x2="116" y2="210.3"/>
<line id="XMLID_242_" class="st3" x1="492.2" y1="42.1" x2="512.7" y2="42.1"/>
<line id="XMLID_241_" class="st8" x1="512.7" y1="42.1" x2="512.7" y2="80.1"/>
<line id="XMLID_240_" class="st8" x1="512.7" y1="80.1" x2="37.2" y2="80.1"/>
<g id="XMLID_116_">
	<g id="XMLID_51_">
		<line id="XMLID_58_" class="st6" x1="72.1" y1="254.1" x2="116" y2="210.3"/>
		<g id="XMLID_52_">
			<polygon id="XMLID_57_" class="st0" points="77.3,253.7 72.5,253.7 72.5,248.9 70.5,250.9 70.5,255.7 75.3,255.7 			"/>
		</g>
	</g>
</g>
<line id="XMLID_207_" class="st3" x1="499.2" y1="263.3" x2="507.2" y2="263.3"/>
<line id="XMLID_206_" class="st8" x1="507.2" y1="263.3" x2="507.2" y2="232.3"/>
<line id="XMLID_205_" class="st6" x1="507.2" y1="232.3" x2="116.4" y2="232.3"/>
<g id="XMLID_199_">
	<g id="XMLID_34_">
		<line id="XMLID_37_" class="st6" x1="72.1" y1="188.4" x2="116" y2="232.3"/>
		<g id="XMLID_35_">
			<polygon id="XMLID_36_" class="st0" points="72.5,193.6 72.5,188.9 77.3,188.9 75.3,186.8 70.5,186.8 70.5,191.6 			"/>
		</g>
	</g>
</g>
<line id="XMLID_66_" class="st8" x1="37.2" y1="263.3" x2="37.2" y2="80.3"/>
<rect id="XMLID_53_" x="88.5" y="163.6" class="st9" width="49" height="31.4"/>
<rect id="XMLID_62_" x="153.5" y="163.6" class="st9" width="49" height="31.4"/>
<g id="XMLID_211_">
	<text id="XMLID_212_" transform="matrix(1 0 0 1 101.5681 134.8845)" class="st0 st1 st2">LFO 1</text>
</g>
<rect id="XMLID_210_" x="88.5" y="116.1" class="st4" width="49" height="31.4"/>
<g id="XMLID_267_">
	<g id="XMLID_269_">
		<line id="XMLID_277_" class="st4" x1="372.9" y1="147.6" x2="372.9" y2="160.3"/>
		<g id="XMLID_270_">
			<polygon id="XMLID_271_" class="st5" points="369.6,156.3 372.9,159.7 376.3,156.3 376.3,159.1 372.9,162.5 369.6,159.1 			"/>
		</g>
	</g>
</g>
<g id="XMLID_265_">
	<text id="XMLID_266_" transform="matrix(1 0 0 1 360.8396 134.8845)" class="st0 st1 st2">LFO 2</text>
</g>
<rect id="XMLID_264_" x="348.5" y="116.1" class="st4" width="49" height="31.4"/>
<g id="XMLID_290_">
	<g id="XMLID_295_">
		<line id="XMLID_298_" class="st4" x1="113" y1="295" x2="113" y2="282.3"/>
		<g id="XMLID_296_">
			<polygon id="XMLID_297_" class="st5" points="116.4,286.2 113,282.8 109.6,286.2 109.6,283.4 113,280 116.4,283.4 			"/>
		</g>
	</g>
</g>
<g id="XMLID_288_">
	<text id="XMLID_289_" transform="matrix(1 0 0 1 100.8552 313.7009)" class="st0 st1 st2">LFO 3</text>
</g>
<rect id="XMLID_287_" x="88.5" y="295" class="st4" width="49" height="31.4"/>
<g id="XMLID_281_">
	<g id="XMLID_300_">
		<line id="XMLID_303_" class="st4" x1="372.9" y1="295" x2="372.9" y2="282.3"/>
		<g id="XMLID_301_">
			<polygon id="XMLID_302_" class="st5" points="376.3,286.2 372.9,282.8 369.6,286.2 369.6,283.4 372.9,280 376.3,283.4 			"/>
		</g>
	</g>
</g>
<g id="XMLID_279_">
	<text id="XMLID_280_" transform="matrix(1 0 0 1 360.8396 313.7009)" class="st0 st1 st2">LFO 4</text>
</g>
<rect id="XMLID_278_" x="348.5" y="295" class="st4" width="49" height="31.4"/>
<rect id="XMLID_104_" x="348.5" y="163.6" class="st9" width="49" height="31.4"/>
<rect id="XMLID_59_" x="413.4" y="163.6" class="st9" width="49" height="31.4"/>
<rect id="XMLID_71_" x="218.5" y="163.6" class="st7" width="49" height="31.4"/>
<rect id="XMLID_84_" x="283.5" y="163.6" class="st7" width="49" height="31.4"/>
<rect id="XMLID_195_" x="88.5" y="247.6" class="st9" width="49" height="31.4"/>
<rect id="XMLID_186_" x="153.5" y="247.6" class="st9" width="49" height="31.4"/>
<rect id="XMLID_177_" x="348.5" y="247.6" class="st9" width="49" height="31.4"/>
<rect id="XMLID_168_" x="413.4" y="247.6" class="st9" width="49" height="31.4"/>
<rect id="XMLID_153_" x="218.5" y="247.6" class="st7" width="49" height="31.4"/>
<rect id="XMLID_133_" x="283.5" y="247.6" class="st7" width="49" height="31.4"/>
<polygon id="XMLID_107_" class="st9" points="478.4,167.4 499.1,179.3 478.4,191.2 "/>
<polygon id="XMLID_118_" class="st9" points="478.4,251.4 499.1,263.3 478.4,275.2 "/>
<g id="XMLID_202_">
	<g id="XMLID_79_">
		<polyline id="XMLID_236_" class="st3" points="504.5,62.8 504.5,65.8 501.5,65.8 		"/>
		<line id="XMLID_233_" class="st10" x1="495.4" y1="65.8" x2="242.7" y2="65.8"/>
		<polyline id="XMLID_227_" class="st3" points="239.7,65.8 236.7,65.8 236.7,62.8 		"/>
		<line id="XMLID_223_" class="st11" x1="236.7" y1="56.9" x2="236.7" y2="24.3"/>
		<polyline id="XMLID_215_" class="st3" points="236.7,21.3 236.7,18.3 239.7,18.3 		"/>
		<line id="XMLID_82_" class="st10" x1="245.8" y1="18.3" x2="498.4" y2="18.3"/>
		<polyline id="XMLID_81_" class="st3" points="501.5,18.3 504.5,18.3 504.5,21.3 		"/>
		<line id="XMLID_80_" class="st11" x1="504.5" y1="27.3" x2="504.5" y2="59.9"/>
	</g>
</g>
<g id="XMLID_234_">
	<g id="XMLID_323_">
		<polyline id="XMLID_331_" class="st3" points="521.8,332.5 521.8,335.5 518.8,335.5 		"/>
		<line id="XMLID_330_" class="st12" x1="512.8" y1="335.5" x2="30.8" y2="335.5"/>
		<polyline id="XMLID_329_" class="st3" points="27.8,335.5 24.8,335.5 24.8,332.5 		"/>
		<line id="XMLID_328_" class="st13" x1="24.8" y1="326.5" x2="24.8" y2="114.1"/>
		<polyline id="XMLID_327_" class="st3" points="24.8,111.1 24.8,108.1 27.8,108.1 		"/>
		<line id="XMLID_326_" class="st12" x1="33.8" y1="108.1" x2="515.8" y2="108.1"/>
		<polyline id="XMLID_325_" class="st3" points="518.8,108.1 521.8,108.1 521.8,111.1 		"/>
		<line id="XMLID_324_" class="st13" x1="521.8" y1="117.1" x2="521.8" y2="329.5"/>
	</g>
</g>
<text id="XMLID_232_" transform="matrix(1 0 0 1 330.7126 9.9539)" class="st0 st1 st14">Input Diffuser</text>
<text id="XMLID_235_" transform="matrix(1 0 0 1 216.2488 99.9564)" class="st0 st1 st14">Reverberation Tank</text>
</svg>
